M48
; DRILL file {KiCad 8.0.4} date 2024-08-03T13:22:46-0400
; FORMAT={2:4/ absolute / inch / suppress leading zeros}
; #@! TF.CreationDate,2024-08-03T13:22:46-04:00
; #@! TF.GenerationSoftware,Kicad,Pcbnew,8.0.4
; #@! TF.FileFunction,Plated,1,2,PTH
FMAT,2
INCH,TZ
; #@! TA.AperFunction,Plated,PTH,ViaDrill
T1C0.0118
; #@! TA.AperFunction,Plated,PTH,ComponentDrill
T2C0.0295
; #@! TA.AperFunction,Plated,PTH,ComponentDrill
T3C0.0315
; #@! TA.AperFunction,Plated,PTH,ComponentDrill
T4C0.0354
; #@! TA.AperFunction,Plated,PTH,ComponentDrill
T5C0.0394
; #@! TA.AperFunction,Plated,PTH,ComponentDrill
T6C0.0402
; #@! TA.AperFunction,Plated,PTH,ComponentDrill
T7C0.0433
; #@! TA.AperFunction,Plated,PTH,ComponentDrill
T8C0.1260
%
G90
G05
T1
X18500Y-13885
X18631Y-31872
X22015Y-19481
X22382Y-26336
X22872Y-26072
X23611Y-21873
X24257Y-13657
X25117Y-29324
X26598Y-41375
X27673Y-26763
X28012Y-27418
X28583Y-29877
X32116Y-29705
X34130Y-26434
X34231Y-43586
X35917Y-44389
X36479Y-55048
X37124Y-55357
X38274Y-45043
X38896Y-34939
X38914Y-42840
X39562Y-34803
X39675Y-29876
X40204Y-32808
X40687Y-37920
X40942Y-35214
X42280Y-51257
X42537Y-26023
X42776Y-24379
X42888Y-35015
X42906Y-26728
X43453Y-49272
X43468Y-25611
X43485Y-24104
X43946Y-35237
X44063Y-25455
X44067Y-23856
X44402Y-42412
X45370Y-39266
X46476Y-39270
X46577Y-31962
X46681Y-51257
X46686Y-35669
X47315Y-39553
X47566Y-37707
X47661Y-32858
X47846Y-42777
X48129Y-26394
X48234Y-28284
X48290Y-32928
X48365Y-34563
X48620Y-51621
X48630Y-39394
X48877Y-31652
X49185Y-32009
X49543Y-28921
X49658Y-20938
X50044Y-30329
X51883Y-30132
X51921Y-56064
X52039Y-34582
X52473Y-25620
X52551Y-37382
X52965Y-40367
X54037Y-29834
X55759Y-43412
X57361Y-39977
X57664Y-23212
X58340Y-55744
X58484Y-26679
X58491Y-29568
X58508Y-54993
X58955Y-22921
X58985Y-49305
X58985Y-40198
X60761Y-44630
X60907Y-52690
X61094Y-40826
X61117Y-50019
X61250Y-22553
X62196Y-44291
X62329Y-21801
X63521Y-45199
X63563Y-31366
X63724Y-21189
X64225Y-39869
X64646Y-50069
X65080Y-29066
X65189Y-39632
X65431Y-42239
X65912Y-42225
X66756Y-52494
X67057Y-42754
X67084Y-31673
X67162Y-47295
X67382Y-37818
X67879Y-31472
X67953Y-43694
X68219Y-53036
X68274Y-45824
X68701Y-21526
X69338Y-23233
X69773Y-43302
X70778Y-46344
X71011Y-24410
X71033Y-23712
X71171Y-42783
X71799Y-45092
X71844Y-43302
X71988Y-42239
X73268Y-42214
X73744Y-40846
X73981Y-41494
X74862Y-45865
X75137Y-30448
X75267Y-41536
X75527Y-55907
X75614Y-51670
X75874Y-42838
X76001Y-55996
X76182Y-42680
X76317Y-55957
X77131Y-39180
X77397Y-43086
X77641Y-20548
X77925Y-56094
X78274Y-53036
X78795Y-52212
X78926Y-56085
X79243Y-51766
X79448Y-42050
X79923Y-56097
X79955Y-45531
X79965Y-42870
X80677Y-54056
X80734Y-15980
X80872Y-55821
X81136Y-48296
X81232Y-55166
X81654Y-56062
X82045Y-52528
X82095Y-56058
X82713Y-56062
X82829Y-36499
X82886Y-30678
X83647Y-44894
X84904Y-44467
X85313Y-39632
X85392Y-56047
X86229Y-26698
X86556Y-35081
X86576Y-48053
X86664Y-31910
X87165Y-27601
X87651Y-44760
X87774Y-45729
X88591Y-42921
X90180Y-29840
T2
X15354Y-51772
X15354Y-52272
X15354Y-52772
T3
X16142Y-21409
X16142Y-22409
X16142Y-23409
X16142Y-24409
X16142Y-25409
X16142Y-26409
X16142Y-27409
X16142Y-28409
X17189Y-46209
X17189Y-48177
X18150Y-51417
X18150Y-53386
X18606Y-45689
X18606Y-48689
X19142Y-21409
X19142Y-22409
X19142Y-23409
X19142Y-24409
X19142Y-25409
X19142Y-26409
X19142Y-27409
X19142Y-28409
X19606Y-45689
X19606Y-48689
X19630Y-50780
X19630Y-53780
X20606Y-45689
X20606Y-48689
X20630Y-50780
X20630Y-53780
X21606Y-21346
X21606Y-22346
X21606Y-23346
X21606Y-24346
X21606Y-25346
X21606Y-26346
X21606Y-27346
X21606Y-28346
X21606Y-45689
X21606Y-48689
X21630Y-50780
X21630Y-53780
X22606Y-45689
X22606Y-48689
X22630Y-50780
X22630Y-53780
X23606Y-45689
X23606Y-48689
X23630Y-50780
X23630Y-53780
X24606Y-21346
X24606Y-22346
X24606Y-23346
X24606Y-24346
X24606Y-25346
X24606Y-26346
X24606Y-27346
X24606Y-28346
X24606Y-45689
X24606Y-48689
X24630Y-50780
X24630Y-53780
X25606Y-45689
X25606Y-48689
X25630Y-50780
X25630Y-53780
X26378Y-39488
X26378Y-42488
X27494Y-34496
X27494Y-36496
X27795Y-51417
X27795Y-53386
X27953Y-39488
X27953Y-42488
X28096Y-46398
X28096Y-48366
X28494Y-35496
X28937Y-28543
X28937Y-30512
X29016Y-22646
X29016Y-24614
X29228Y-50780
X29228Y-53780
X29474Y-45689
X29474Y-48689
X29528Y-39535
X29528Y-42535
X30069Y-34039
X30069Y-37039
X30228Y-50780
X30228Y-53780
X30346Y-22047
X30346Y-25047
X30370Y-27945
X30370Y-30945
X30474Y-45689
X30474Y-48689
X31102Y-39488
X31102Y-42488
X31228Y-50780
X31228Y-53780
X31346Y-22047
X31346Y-25047
X31370Y-27945
X31370Y-30945
X31474Y-45689
X31474Y-48689
X32228Y-50780
X32228Y-53780
X32291Y-34008
X32291Y-37008
X32346Y-22047
X32346Y-25047
X32370Y-27945
X32370Y-30945
X32474Y-45689
X32474Y-48689
X33071Y-39929
X33071Y-41929
X33228Y-50780
X33228Y-53780
X33291Y-34008
X33291Y-37008
X33346Y-22047
X33346Y-25047
X33370Y-27945
X33370Y-30945
X33474Y-45689
X33474Y-48689
X34071Y-40929
X34228Y-50780
X34228Y-53780
X34291Y-34008
X34291Y-37008
X34346Y-22047
X34346Y-25047
X34370Y-27945
X34370Y-30945
X34474Y-45689
X34474Y-48689
X35228Y-50780
X35228Y-53780
X35291Y-34008
X35291Y-37008
X35346Y-22047
X35346Y-25047
X35370Y-27945
X35370Y-30945
X35474Y-45689
X35474Y-48689
X35827Y-40323
X35827Y-41307
X36228Y-50780
X36228Y-53780
X36291Y-34008
X36291Y-37008
X36346Y-22047
X36346Y-25047
X36370Y-17323
X36370Y-27945
X36370Y-30945
X36417Y-15945
X36474Y-45689
X36474Y-48689
X37228Y-50780
X37228Y-53780
X37291Y-34008
X37291Y-37008
X37346Y-22047
X37346Y-25047
X37370Y-27945
X37370Y-30945
X37474Y-45689
X37474Y-48689
X37598Y-39535
X37598Y-42535
X38228Y-50780
X38228Y-53780
X38291Y-34008
X38291Y-37008
X38346Y-22047
X38346Y-25047
X38370Y-27945
X38370Y-30945
X38474Y-45689
X38474Y-48689
X39291Y-34008
X39291Y-37008
X39346Y-22047
X39346Y-25047
X39370Y-17323
X39370Y-27945
X39370Y-30945
X39417Y-15945
X39764Y-39929
X39764Y-41929
X40764Y-40929
X40781Y-46240
X40781Y-48209
X40803Y-51378
X40803Y-53346
X41094Y-17323
X41142Y-15945
X41262Y-22638
X41262Y-24606
X41339Y-28346
X41339Y-30315
X41339Y-34425
X41339Y-36394
X42181Y-50740
X42181Y-53740
X42230Y-45650
X42230Y-48650
X42614Y-34031
X42614Y-37031
X42624Y-22047
X42624Y-25047
X42624Y-27906
X42624Y-30906
X43181Y-50740
X43181Y-53740
X43230Y-45650
X43230Y-48650
X43614Y-34031
X43614Y-37031
X43624Y-20276
X43624Y-22047
X43624Y-25047
X43624Y-27906
X43624Y-30906
X44094Y-17323
X44142Y-15945
X44181Y-50740
X44181Y-53740
X44230Y-45650
X44230Y-48650
X44614Y-34031
X44614Y-37031
X44624Y-20276
X44624Y-22047
X44624Y-25047
X44624Y-27906
X44624Y-30906
X45181Y-50740
X45181Y-53740
X45230Y-45650
X45230Y-48650
X45614Y-34031
X45614Y-37031
X45624Y-20276
X45624Y-22047
X45624Y-25047
X45624Y-27906
X45624Y-30906
X46181Y-50740
X46181Y-53740
X46230Y-45650
X46230Y-48650
X46614Y-34031
X46614Y-37031
X46624Y-20276
X46624Y-22047
X46624Y-25047
X46624Y-27906
X46624Y-30906
X47181Y-50740
X47181Y-53740
X47230Y-45650
X47230Y-48650
X47496Y-13142
X47496Y-16142
X47614Y-34031
X47614Y-37031
X47624Y-20276
X47624Y-22047
X47624Y-25047
X47624Y-27906
X47624Y-30906
X48181Y-50740
X48181Y-53740
X48230Y-45650
X48230Y-48650
X48496Y-13142
X48496Y-16142
X48614Y-34031
X48614Y-37031
X48624Y-20276
X48624Y-22047
X48624Y-25047
X48624Y-27906
X48624Y-30906
X49181Y-50740
X49181Y-53740
X49230Y-45650
X49230Y-48650
X49496Y-13142
X49496Y-16142
X49614Y-34031
X49614Y-37031
X49624Y-20276
X49624Y-22047
X49624Y-25047
X49624Y-27906
X49624Y-30906
X50181Y-50740
X50181Y-53740
X50230Y-45650
X50230Y-48650
X50496Y-13142
X50496Y-16142
X50614Y-34031
X50614Y-37031
X50624Y-20276
X50624Y-22047
X50624Y-25047
X50624Y-27906
X50624Y-30906
X51181Y-50740
X51181Y-53740
X51230Y-45650
X51230Y-48650
X51496Y-13142
X51496Y-16142
X51614Y-34031
X51614Y-37031
X51624Y-20276
X51624Y-22047
X51624Y-25047
X51624Y-27906
X51624Y-30906
X52496Y-13142
X52496Y-16142
X53386Y-34669
X53386Y-36638
X53396Y-28346
X53396Y-30315
X53467Y-22488
X53467Y-24457
X53496Y-13142
X53496Y-16142
X54496Y-13142
X54496Y-16142
X54819Y-34008
X54819Y-37008
X54829Y-22047
X54829Y-25047
X54829Y-27906
X54829Y-30906
X55409Y-44638
X55409Y-46606
X55559Y-51283
X55559Y-53252
X55819Y-34008
X55819Y-37008
X55829Y-20276
X55829Y-22047
X55829Y-25047
X55829Y-27906
X55829Y-30906
X56274Y-39370
X56274Y-41339
X56819Y-34008
X56819Y-37008
X56829Y-20276
X56829Y-22047
X56829Y-25047
X56829Y-27906
X56829Y-30906
X56843Y-43898
X56843Y-46898
X56843Y-50693
X56843Y-53693
X57646Y-13142
X57646Y-16142
X57780Y-38929
X57780Y-41929
X57819Y-34008
X57819Y-37008
X57829Y-20276
X57829Y-22047
X57829Y-25047
X57829Y-27906
X57829Y-30906
X57843Y-43898
X57843Y-46898
X57843Y-50693
X57843Y-53693
X58646Y-13142
X58646Y-16142
X58780Y-38929
X58780Y-41929
X58819Y-34008
X58819Y-37008
X58829Y-20276
X58829Y-22047
X58829Y-25047
X58829Y-27906
X58829Y-30906
X58843Y-43898
X58843Y-46898
X58843Y-50693
X58843Y-53693
X59646Y-13142
X59646Y-16142
X59780Y-38929
X59780Y-41929
X59819Y-34008
X59819Y-37008
X59829Y-20276
X59829Y-22047
X59829Y-25047
X59829Y-27906
X59829Y-30906
X59843Y-43898
X59843Y-46898
X59843Y-50693
X59843Y-53693
X60646Y-13142
X60646Y-16142
X60780Y-38929
X60780Y-41929
X60819Y-34008
X60819Y-37008
X60829Y-20276
X60829Y-22047
X60829Y-25047
X60829Y-27906
X60829Y-30906
X60843Y-43898
X60843Y-46898
X60843Y-50693
X60843Y-53693
X61646Y-13142
X61646Y-16142
X61780Y-38929
X61780Y-41929
X61819Y-34008
X61819Y-37008
X61829Y-20276
X61829Y-22047
X61829Y-25047
X61829Y-27906
X61829Y-30906
X61843Y-43898
X61843Y-46898
X61843Y-50693
X61843Y-53693
X62646Y-13142
X62646Y-16142
X62780Y-38929
X62780Y-41929
X62819Y-34008
X62819Y-37008
X62829Y-20276
X62829Y-22047
X62829Y-25047
X62829Y-27906
X62829Y-30906
X62843Y-43898
X62843Y-46898
X62843Y-50693
X62843Y-53693
X63646Y-13142
X63646Y-16142
X63780Y-38929
X63780Y-41929
X63819Y-34008
X63819Y-37008
X63829Y-20276
X63829Y-22047
X63829Y-25047
X63829Y-27906
X63829Y-30906
X63843Y-43898
X63843Y-46898
X63843Y-50693
X63843Y-53693
X64646Y-13142
X64646Y-16142
X64843Y-43898
X64843Y-46898
X64843Y-50693
X64843Y-53693
X65437Y-23890
X65437Y-25858
X65437Y-32748
X65437Y-34717
X65843Y-43898
X65843Y-46898
X65843Y-50693
X65843Y-53693
X66815Y-22047
X66815Y-28047
X66815Y-30882
X66815Y-36882
X67449Y-51232
X67449Y-53201
X67455Y-15031
X67455Y-17000
X67472Y-44685
X67472Y-46654
X67815Y-22047
X67815Y-28047
X67815Y-30882
X67815Y-36882
X68815Y-22047
X68815Y-28047
X68815Y-30882
X68815Y-36882
X68833Y-13165
X68833Y-19165
X68898Y-50642
X68898Y-53642
X68953Y-43898
X68953Y-46898
X69734Y-48898
X69815Y-22047
X69815Y-28047
X69815Y-30882
X69815Y-36882
X69833Y-13165
X69833Y-19165
X69898Y-50642
X69898Y-53642
X69953Y-43898
X69953Y-46898
X70734Y-48898
X70815Y-22047
X70815Y-28047
X70815Y-30882
X70815Y-36882
X70833Y-13165
X70833Y-19165
X70898Y-50642
X70898Y-53642
X70953Y-43898
X70953Y-46898
X71734Y-48898
X71815Y-22047
X71815Y-28047
X71815Y-30882
X71815Y-36882
X71833Y-13165
X71833Y-19165
X71898Y-50642
X71898Y-53642
X71953Y-43898
X71953Y-46898
X72734Y-48898
X72815Y-22047
X72815Y-28047
X72815Y-30882
X72815Y-36882
X72833Y-13165
X72833Y-19165
X72898Y-50642
X72898Y-53642
X72953Y-43898
X72953Y-46898
X73734Y-48898
X73815Y-22047
X73815Y-28047
X73815Y-30882
X73815Y-36882
X73833Y-13165
X73833Y-19165
X73898Y-50642
X73898Y-53642
X73953Y-43898
X73953Y-46898
X74734Y-48898
X74815Y-22047
X74815Y-28047
X74815Y-30882
X74815Y-36882
X74833Y-13165
X74833Y-19165
X74898Y-50642
X74898Y-53642
X74953Y-43898
X74953Y-46898
X75734Y-48898
X75815Y-22047
X75815Y-28047
X75815Y-30882
X75815Y-36882
X75833Y-13165
X75833Y-19165
X75898Y-50642
X75898Y-53642
X75953Y-43898
X75953Y-46898
X76734Y-48898
X76815Y-22047
X76815Y-28047
X76815Y-30882
X76815Y-36882
X76833Y-13165
X76833Y-19165
X76898Y-50642
X76898Y-53642
X76953Y-43898
X76953Y-46898
X77734Y-48898
X77815Y-22047
X77815Y-28047
X77815Y-30882
X77815Y-36882
X77833Y-13165
X77833Y-19165
X77898Y-50642
X77898Y-53642
X77953Y-43898
X77953Y-46898
X78815Y-22047
X78815Y-28047
X78815Y-30882
X78815Y-36882
X78833Y-13165
X78833Y-19165
X79480Y-44756
X79480Y-46724
X79543Y-51303
X79543Y-53272
X79815Y-22047
X79815Y-28047
X79815Y-30882
X79815Y-36882
X79833Y-13165
X79833Y-19165
X80858Y-43898
X80858Y-46898
X80858Y-50543
X80858Y-53543
X80929Y-48890
X81382Y-39244
X81382Y-41213
X81407Y-36961
X81407Y-37945
X81579Y-23496
X81579Y-25465
X81594Y-18012
X81594Y-19980
X81858Y-43898
X81858Y-46898
X81858Y-50543
X81858Y-53543
X81929Y-48890
X82366Y-28614
X82366Y-30583
X82366Y-33929
X82366Y-35898
X82858Y-43898
X82858Y-46898
X82858Y-50543
X82858Y-53543
X82862Y-17346
X82862Y-20346
X82862Y-22858
X82862Y-25858
X82862Y-38803
X82862Y-41803
X82929Y-48890
X83858Y-43898
X83858Y-46898
X83858Y-50543
X83858Y-53543
X83862Y-17346
X83862Y-20346
X83862Y-22858
X83862Y-25858
X83862Y-28055
X83862Y-31055
X83862Y-38803
X83862Y-41803
X83872Y-33339
X83872Y-36339
X83929Y-48890
X84858Y-43898
X84858Y-46898
X84858Y-50543
X84858Y-53543
X84862Y-17346
X84862Y-20346
X84862Y-22858
X84862Y-25858
X84862Y-28055
X84862Y-31055
X84862Y-38803
X84862Y-41803
X84872Y-33339
X84872Y-36339
X84929Y-48890
X85858Y-43898
X85858Y-46898
X85858Y-50543
X85858Y-53543
X85862Y-17346
X85862Y-20346
X85862Y-22858
X85862Y-25858
X85862Y-28055
X85862Y-31055
X85862Y-38803
X85862Y-41803
X85872Y-33339
X85872Y-36339
X85929Y-48890
X86858Y-43898
X86858Y-46898
X86858Y-50543
X86858Y-53543
X86862Y-17346
X86862Y-20346
X86862Y-22858
X86862Y-25858
X86862Y-28055
X86862Y-31055
X86862Y-38803
X86862Y-41803
X86872Y-33339
X86872Y-36339
X86929Y-48890
X87858Y-43898
X87858Y-46898
X87858Y-50543
X87858Y-53543
X87862Y-17346
X87862Y-20346
X87862Y-22858
X87862Y-25858
X87862Y-28055
X87862Y-31055
X87862Y-38803
X87862Y-41803
X87872Y-33339
X87872Y-36339
X87929Y-48890
X88858Y-43898
X88858Y-46898
X88858Y-50543
X88858Y-53543
X88862Y-17346
X88862Y-20346
X88862Y-22858
X88862Y-25858
X88862Y-28055
X88862Y-31055
X88862Y-38803
X88862Y-41803
X88872Y-33339
X88872Y-36339
X88929Y-48890
X89858Y-43898
X89858Y-46898
X89858Y-50543
X89858Y-53543
X89862Y-17346
X89862Y-20346
X89862Y-22858
X89862Y-25858
X89862Y-28055
X89862Y-31055
X89862Y-38803
X89862Y-41803
X89872Y-33339
X89872Y-36339
T4
X36313Y-12874
X37313Y-12874
X38691Y-12874
X39691Y-12874
X41037Y-12874
X42037Y-12874
X43504Y-12874
X44504Y-12874
T5
X15945Y-17504
X15945Y-18504
X17898Y-17504
X17898Y-18504
X18898Y-17504
X18898Y-18504
X25110Y-12898
X25110Y-18898
X26110Y-12898
X26110Y-18898
X27110Y-12898
X27110Y-18898
X28110Y-12898
X28110Y-18898
X29110Y-12898
X29110Y-18898
X30110Y-12898
X30110Y-18898
X31110Y-12898
X31110Y-18898
X32110Y-12898
X32110Y-18898
X33110Y-12898
X33110Y-18898
X45181Y-40945
X45181Y-41945
X46181Y-40945
X46181Y-41945
X47181Y-40945
X47181Y-41945
X48181Y-40945
X48181Y-41945
X49181Y-40945
X49181Y-41945
X50181Y-40945
X50181Y-41945
X51181Y-40945
X51181Y-41945
X52937Y-47984
X52937Y-48984
X52937Y-49984
X53937Y-47984
X53937Y-48984
X53937Y-49984
X67406Y-40031
X67406Y-41031
X68406Y-40031
X68406Y-41031
X69406Y-40031
X69406Y-41031
X70406Y-40031
X70406Y-41031
X71406Y-40031
X71406Y-41031
X74823Y-40016
X74823Y-41016
X75823Y-40016
X75823Y-41016
X76823Y-40016
X76823Y-41016
X77823Y-40016
X77823Y-41016
X78823Y-40016
X78823Y-41016
X82894Y-13654
X82894Y-14654
X83894Y-13654
X83894Y-14654
X84894Y-13654
X84894Y-14654
X85894Y-13654
X85894Y-14654
X86894Y-13654
X86894Y-14654
X87894Y-13654
X87894Y-14654
X88894Y-13654
X88894Y-14654
X89894Y-13654
X89894Y-14654
X92835Y-18354
X92835Y-19354
X92835Y-20354
X92913Y-36614
X92913Y-37614
X92913Y-40173
X92913Y-41173
X92913Y-43717
X92913Y-44717
X93835Y-18354
X93835Y-19354
X93835Y-20354
T6
X20276Y-31120
X20276Y-42738
T7
X19094Y-12953
X19094Y-14724
X21654Y-12953
X21654Y-14724
T8
X93504Y-49370
M30
