%TF.GenerationSoftware,KiCad,Pcbnew,8.0.4*%
%TF.CreationDate,2024-08-03T13:22:42-04:00*%
%TF.ProjectId,386sxEmbedded,33383673-7845-46d6-9265-646465642e6b,rev?*%
%TF.SameCoordinates,Original*%
%TF.FileFunction,Soldermask,Bot*%
%TF.FilePolarity,Negative*%
%FSLAX46Y46*%
G04 Gerber Fmt 4.6, Leading zero omitted, Abs format (unit mm)*
G04 Created by KiCad (PCBNEW 8.0.4) date 2024-08-03 13:22:42*
%MOMM*%
%LPD*%
G01*
G04 APERTURE LIST*
G04 Aperture macros list*
%AMRoundRect*
0 Rectangle with rounded corners*
0 $1 Rounding radius*
0 $2 $3 $4 $5 $6 $7 $8 $9 X,Y pos of 4 corners*
0 Add a 4 corners polygon primitive as box body*
4,1,4,$2,$3,$4,$5,$6,$7,$8,$9,$2,$3,0*
0 Add four circle primitives for the rounded corners*
1,1,$1+$1,$2,$3*
1,1,$1+$1,$4,$5*
1,1,$1+$1,$6,$7*
1,1,$1+$1,$8,$9*
0 Add four rect primitives between the rounded corners*
20,1,$1+$1,$2,$3,$4,$5,0*
20,1,$1+$1,$4,$5,$6,$7,0*
20,1,$1+$1,$6,$7,$8,$9,0*
20,1,$1+$1,$8,$9,$2,$3,0*%
G04 Aperture macros list end*
%ADD10R,1.700000X1.700000*%
%ADD11O,1.700000X1.700000*%
%ADD12R,1.600000X1.600000*%
%ADD13O,1.600000X1.600000*%
%ADD14C,1.600000*%
%ADD15R,1.500000X1.050000*%
%ADD16O,1.500000X1.050000*%
%ADD17R,1.500000X1.500000*%
%ADD18C,1.500000*%
%ADD19R,1.800000X1.800000*%
%ADD20C,1.800000*%
%ADD21C,1.440000*%
%ADD22RoundRect,0.250000X0.600000X-0.600000X0.600000X0.600000X-0.600000X0.600000X-0.600000X-0.600000X0*%
%ADD23C,1.700000*%
%ADD24C,3.180000*%
%ADD25C,1.734000*%
%ADD26R,1.780000X7.620000*%
%ADD27C,3.200000*%
%ADD28C,2.000000*%
%ADD29C,6.400000*%
G04 APERTURE END LIST*
D10*
%TO.C,JP1*%
X236000000Y-93000000D03*
D11*
X236000000Y-95540000D03*
%TD*%
D12*
%TO.C,U28*%
X108265000Y-78500000D03*
D13*
X110805000Y-78500000D03*
X113345000Y-78500000D03*
X115885000Y-78500000D03*
X118425000Y-78500000D03*
X120965000Y-78500000D03*
X123505000Y-78500000D03*
X126045000Y-78500000D03*
X128585000Y-78500000D03*
X131125000Y-78500000D03*
X131125000Y-70880000D03*
X128585000Y-70880000D03*
X126045000Y-70880000D03*
X123505000Y-70880000D03*
X120965000Y-70880000D03*
X118425000Y-70880000D03*
X115885000Y-70880000D03*
X113345000Y-70880000D03*
X110805000Y-70880000D03*
X108265000Y-70880000D03*
%TD*%
D12*
%TO.C,U8*%
X210470000Y-106180000D03*
D13*
X213010000Y-106180000D03*
X215550000Y-106180000D03*
X218090000Y-106180000D03*
X220630000Y-106180000D03*
X223170000Y-106180000D03*
X225710000Y-106180000D03*
X228250000Y-106180000D03*
X228250000Y-98560000D03*
X225710000Y-98560000D03*
X223170000Y-98560000D03*
X220630000Y-98560000D03*
X218090000Y-98560000D03*
X215550000Y-98560000D03*
X213010000Y-98560000D03*
X210470000Y-98560000D03*
%TD*%
D14*
%TO.C,C12*%
X207250000Y-45750000D03*
X207250000Y-50750000D03*
%TD*%
%TO.C,R20*%
X71000000Y-100300000D03*
D13*
X71000000Y-107920000D03*
%TD*%
D14*
%TO.C,R1*%
X76375000Y-94080000D03*
D13*
X76375000Y-86460000D03*
%TD*%
D15*
%TO.C,U30*%
X39000000Y-134040000D03*
D16*
X39000000Y-132770000D03*
X39000000Y-131500000D03*
%TD*%
D14*
%TO.C,C19*%
X171335000Y-38180000D03*
X171335000Y-43180000D03*
%TD*%
D12*
%TO.C,U4*%
X205380000Y-136000000D03*
D13*
X207920000Y-136000000D03*
X210460000Y-136000000D03*
X213000000Y-136000000D03*
X215540000Y-136000000D03*
X218080000Y-136000000D03*
X220620000Y-136000000D03*
X223160000Y-136000000D03*
X225700000Y-136000000D03*
X228240000Y-136000000D03*
X228240000Y-128380000D03*
X225700000Y-128380000D03*
X223160000Y-128380000D03*
X220620000Y-128380000D03*
X218080000Y-128380000D03*
X215540000Y-128380000D03*
X213000000Y-128380000D03*
X210460000Y-128380000D03*
X207920000Y-128380000D03*
X205380000Y-128380000D03*
%TD*%
D17*
%TO.C,U15*%
X63780000Y-48000000D03*
D18*
X66320000Y-48000000D03*
X68860000Y-48000000D03*
X71400000Y-48000000D03*
X73940000Y-48000000D03*
X76480000Y-48000000D03*
X79020000Y-48000000D03*
X81560000Y-48000000D03*
X84100000Y-48000000D03*
X84100000Y-32760000D03*
X81560000Y-32760000D03*
X79020000Y-32760000D03*
X76480000Y-32760000D03*
X73940000Y-32760000D03*
X71400000Y-32760000D03*
X68860000Y-32760000D03*
X66320000Y-32760000D03*
X63780000Y-32760000D03*
%TD*%
D12*
%TO.C,U27*%
X169710000Y-93680000D03*
D13*
X172250000Y-93680000D03*
X174790000Y-93680000D03*
X177330000Y-93680000D03*
X179870000Y-93680000D03*
X182410000Y-93680000D03*
X184950000Y-93680000D03*
X187490000Y-93680000D03*
X190030000Y-93680000D03*
X192570000Y-93680000D03*
X195110000Y-93680000D03*
X197650000Y-93680000D03*
X200190000Y-93680000D03*
X202730000Y-93680000D03*
X202730000Y-78440000D03*
X200190000Y-78440000D03*
X197650000Y-78440000D03*
X195110000Y-78440000D03*
X192570000Y-78440000D03*
X190030000Y-78440000D03*
X187490000Y-78440000D03*
X184950000Y-78440000D03*
X182410000Y-78440000D03*
X179870000Y-78440000D03*
X177330000Y-78440000D03*
X174790000Y-78440000D03*
X172250000Y-78440000D03*
X169710000Y-78440000D03*
%TD*%
D12*
%TO.C,U13*%
X77140000Y-78600000D03*
D13*
X79680000Y-78600000D03*
X82220000Y-78600000D03*
X84760000Y-78600000D03*
X87300000Y-78600000D03*
X89840000Y-78600000D03*
X92380000Y-78600000D03*
X94920000Y-78600000D03*
X97460000Y-78600000D03*
X100000000Y-78600000D03*
X100000000Y-70980000D03*
X97460000Y-70980000D03*
X94920000Y-70980000D03*
X92380000Y-70980000D03*
X89840000Y-70980000D03*
X87300000Y-70980000D03*
X84760000Y-70980000D03*
X82220000Y-70980000D03*
X79680000Y-70980000D03*
X77140000Y-70980000D03*
%TD*%
D19*
%TO.C,D5*%
X110500000Y-32700000D03*
D20*
X113040000Y-32700000D03*
%TD*%
D14*
%TO.C,C6*%
X70600000Y-135600000D03*
X70600000Y-130600000D03*
%TD*%
D12*
%TO.C,U31*%
X108240000Y-94060000D03*
D13*
X110780000Y-94060000D03*
X113320000Y-94060000D03*
X115860000Y-94060000D03*
X118400000Y-94060000D03*
X120940000Y-94060000D03*
X123480000Y-94060000D03*
X126020000Y-94060000D03*
X128560000Y-94060000D03*
X131100000Y-94060000D03*
X131100000Y-86440000D03*
X128560000Y-86440000D03*
X126020000Y-86440000D03*
X123480000Y-86440000D03*
X120940000Y-86440000D03*
X118400000Y-86440000D03*
X115860000Y-86440000D03*
X113320000Y-86440000D03*
X110780000Y-86440000D03*
X108240000Y-86440000D03*
%TD*%
D12*
%TO.C,U23*%
X169710000Y-71240000D03*
D13*
X172250000Y-71240000D03*
X174790000Y-71240000D03*
X177330000Y-71240000D03*
X179870000Y-71240000D03*
X182410000Y-71240000D03*
X184950000Y-71240000D03*
X187490000Y-71240000D03*
X190030000Y-71240000D03*
X192570000Y-71240000D03*
X195110000Y-71240000D03*
X197650000Y-71240000D03*
X200190000Y-71240000D03*
X202730000Y-71240000D03*
X202730000Y-56000000D03*
X200190000Y-56000000D03*
X197650000Y-56000000D03*
X195110000Y-56000000D03*
X192570000Y-56000000D03*
X190030000Y-56000000D03*
X187490000Y-56000000D03*
X184950000Y-56000000D03*
X182410000Y-56000000D03*
X179870000Y-56000000D03*
X177330000Y-56000000D03*
X174790000Y-56000000D03*
X172250000Y-56000000D03*
X169710000Y-56000000D03*
%TD*%
D14*
%TO.C,C15*%
X73500000Y-72500000D03*
X73500000Y-77500000D03*
%TD*%
%TO.C,C28*%
X105000000Y-72000000D03*
X105000000Y-77000000D03*
%TD*%
D21*
%TO.C,RV1*%
X69835000Y-87620000D03*
X72375000Y-90160000D03*
X69835000Y-92700000D03*
%TD*%
D14*
%TO.C,C10*%
X209210000Y-86180000D03*
X209210000Y-91180000D03*
%TD*%
D12*
%TO.C,U24*%
X107265000Y-123570000D03*
D13*
X109805000Y-123570000D03*
X112345000Y-123570000D03*
X114885000Y-123570000D03*
X117425000Y-123570000D03*
X119965000Y-123570000D03*
X122505000Y-123570000D03*
X125045000Y-123570000D03*
X127585000Y-123570000D03*
X130125000Y-123570000D03*
X130125000Y-115950000D03*
X127585000Y-115950000D03*
X125045000Y-115950000D03*
X122505000Y-115950000D03*
X119965000Y-115950000D03*
X117425000Y-115950000D03*
X114885000Y-115950000D03*
X112345000Y-115950000D03*
X109805000Y-115950000D03*
X107265000Y-115950000D03*
%TD*%
D22*
%TO.C,J9*%
X114760000Y-106540000D03*
D23*
X114760000Y-104000000D03*
X117300000Y-106540000D03*
X117300000Y-104000000D03*
X119840000Y-106540000D03*
X119840000Y-104000000D03*
X122380000Y-106540000D03*
X122380000Y-104000000D03*
X124920000Y-106540000D03*
X124920000Y-104000000D03*
X127460000Y-106540000D03*
X127460000Y-104000000D03*
X130000000Y-106540000D03*
X130000000Y-104000000D03*
%TD*%
D19*
%TO.C,D2*%
X92235000Y-32700000D03*
D20*
X94775000Y-32700000D03*
%TD*%
D12*
%TO.C,U22*%
X205380000Y-119120000D03*
D13*
X207920000Y-119120000D03*
X210460000Y-119120000D03*
X213000000Y-119120000D03*
X215540000Y-119120000D03*
X218080000Y-119120000D03*
X220620000Y-119120000D03*
X223160000Y-119120000D03*
X225700000Y-119120000D03*
X228240000Y-119120000D03*
X228240000Y-111500000D03*
X225700000Y-111500000D03*
X223160000Y-111500000D03*
X220620000Y-111500000D03*
X218080000Y-111500000D03*
X215540000Y-111500000D03*
X213000000Y-111500000D03*
X210460000Y-111500000D03*
X207920000Y-111500000D03*
X205380000Y-111500000D03*
%TD*%
D14*
%TO.C,C31*%
X105000000Y-87440000D03*
X105000000Y-92440000D03*
%TD*%
D12*
%TO.C,SW3*%
X146420000Y-41000000D03*
D13*
X148960000Y-41000000D03*
X151500000Y-41000000D03*
X154040000Y-41000000D03*
X156580000Y-41000000D03*
X159120000Y-41000000D03*
X161660000Y-41000000D03*
X164200000Y-41000000D03*
X164200000Y-33380000D03*
X161660000Y-33380000D03*
X159120000Y-33380000D03*
X156580000Y-33380000D03*
X154040000Y-33380000D03*
X151500000Y-33380000D03*
X148960000Y-33380000D03*
X146420000Y-33380000D03*
%TD*%
D10*
%TO.C,J2*%
X171210000Y-104220000D03*
D11*
X171210000Y-101680000D03*
X173750000Y-104220000D03*
X173750000Y-101680000D03*
X176290000Y-104220000D03*
X176290000Y-101680000D03*
X178830000Y-104220000D03*
X178830000Y-101680000D03*
X181370000Y-104220000D03*
X181370000Y-101680000D03*
%TD*%
D12*
%TO.C,RN1*%
X177125000Y-124200000D03*
D13*
X179665000Y-124200000D03*
X182205000Y-124200000D03*
X184745000Y-124200000D03*
X187285000Y-124200000D03*
X189825000Y-124200000D03*
X192365000Y-124200000D03*
X194905000Y-124200000D03*
X197445000Y-124200000D03*
%TD*%
D19*
%TO.C,D4*%
X104235000Y-32700000D03*
D20*
X106775000Y-32700000D03*
%TD*%
D14*
%TO.C,C16*%
X73700000Y-57520000D03*
X73700000Y-62520000D03*
%TD*%
D24*
%TO.C,BT1*%
X51500000Y-101600000D03*
X51500000Y-86000000D03*
D25*
X51500000Y-108555000D03*
X51500000Y-79045000D03*
%TD*%
D12*
%TO.C,U26*%
X74865000Y-123670000D03*
D13*
X77405000Y-123670000D03*
X79945000Y-123670000D03*
X82485000Y-123670000D03*
X85025000Y-123670000D03*
X87565000Y-123670000D03*
X90105000Y-123670000D03*
X92645000Y-123670000D03*
X95185000Y-123670000D03*
X97725000Y-123670000D03*
X97725000Y-116050000D03*
X95185000Y-116050000D03*
X92645000Y-116050000D03*
X90105000Y-116050000D03*
X87565000Y-116050000D03*
X85025000Y-116050000D03*
X82485000Y-116050000D03*
X79945000Y-116050000D03*
X77405000Y-116050000D03*
X74865000Y-116050000D03*
%TD*%
D10*
%TO.C,J8*%
X45460000Y-44460000D03*
D11*
X48000000Y-44460000D03*
X45460000Y-47000000D03*
X48000000Y-47000000D03*
%TD*%
D10*
%TO.C,J6*%
X190050000Y-104180000D03*
D11*
X190050000Y-101640000D03*
X192590000Y-104180000D03*
X192590000Y-101640000D03*
X195130000Y-104180000D03*
X195130000Y-101640000D03*
X197670000Y-104180000D03*
X197670000Y-101640000D03*
X200210000Y-104180000D03*
X200210000Y-101640000D03*
%TD*%
D14*
%TO.C,C23*%
X166210000Y-60680000D03*
X166210000Y-65680000D03*
%TD*%
D12*
%TO.C,U3*%
X175000000Y-136250000D03*
D13*
X177540000Y-136250000D03*
X180080000Y-136250000D03*
X182620000Y-136250000D03*
X185160000Y-136250000D03*
X187700000Y-136250000D03*
X190240000Y-136250000D03*
X192780000Y-136250000D03*
X195320000Y-136250000D03*
X197860000Y-136250000D03*
X197860000Y-128630000D03*
X195320000Y-128630000D03*
X192780000Y-128630000D03*
X190240000Y-128630000D03*
X187700000Y-128630000D03*
X185160000Y-128630000D03*
X182620000Y-128630000D03*
X180080000Y-128630000D03*
X177540000Y-128630000D03*
X175000000Y-128630000D03*
%TD*%
D21*
%TO.C,RV3*%
X101000000Y-101420000D03*
X103540000Y-103960000D03*
X101000000Y-106500000D03*
%TD*%
D14*
%TO.C,C18*%
X142935000Y-105000000D03*
X142935000Y-100000000D03*
%TD*%
D10*
%TO.C,J4*%
X40500000Y-44460000D03*
D11*
X40500000Y-47000000D03*
%TD*%
D26*
%TO.C,J1*%
X221975000Y-146710000D03*
X219435000Y-146710000D03*
X216895000Y-146710000D03*
X214355000Y-146710000D03*
X211815000Y-146710000D03*
X209275000Y-146710000D03*
X206735000Y-146710000D03*
X204195000Y-146710000D03*
X201655000Y-146710000D03*
X199115000Y-146710000D03*
X196575000Y-146710000D03*
X194035000Y-146710000D03*
X191495000Y-146710000D03*
X188955000Y-146710000D03*
X186415000Y-146710000D03*
X183875000Y-146710000D03*
X181335000Y-146710000D03*
X178795000Y-146710000D03*
X176255000Y-146710000D03*
X173715000Y-146710000D03*
X171175000Y-146710000D03*
X168635000Y-146710000D03*
X166095000Y-146710000D03*
X163555000Y-146710000D03*
X161015000Y-146710000D03*
X158475000Y-146710000D03*
X155935000Y-146710000D03*
X153395000Y-146710000D03*
X150855000Y-146710000D03*
X148315000Y-146710000D03*
X145775000Y-146710000D03*
X135615000Y-146710000D03*
X133075000Y-146710000D03*
X130535000Y-146710000D03*
X127995000Y-146710000D03*
X125455000Y-146710000D03*
X122915000Y-146710000D03*
X120375000Y-146710000D03*
X117835000Y-146710000D03*
X115295000Y-146710000D03*
X112755000Y-146710000D03*
X110215000Y-146710000D03*
X107675000Y-146710000D03*
X105135000Y-146710000D03*
X102595000Y-146710000D03*
X100055000Y-146710000D03*
X97515000Y-146710000D03*
X94975000Y-146710000D03*
X92435000Y-146710000D03*
%TD*%
D14*
%TO.C,C14*%
X104805000Y-57500000D03*
X104805000Y-62500000D03*
%TD*%
D12*
%TO.C,U32*%
X139265000Y-78500000D03*
D13*
X141805000Y-78500000D03*
X144345000Y-78500000D03*
X146885000Y-78500000D03*
X149425000Y-78500000D03*
X151965000Y-78500000D03*
X154505000Y-78500000D03*
X157045000Y-78500000D03*
X159585000Y-78500000D03*
X162125000Y-78500000D03*
X162125000Y-70880000D03*
X159585000Y-70880000D03*
X157045000Y-70880000D03*
X154505000Y-70880000D03*
X151965000Y-70880000D03*
X149425000Y-70880000D03*
X146885000Y-70880000D03*
X144345000Y-70880000D03*
X141805000Y-70880000D03*
X139265000Y-70880000D03*
%TD*%
D12*
%TO.C,RN4*%
X205560000Y-124180000D03*
D13*
X208100000Y-124180000D03*
X210640000Y-124180000D03*
X213180000Y-124180000D03*
X215720000Y-124180000D03*
X218260000Y-124180000D03*
X220800000Y-124180000D03*
X223340000Y-124180000D03*
X225880000Y-124180000D03*
%TD*%
D14*
%TO.C,C7*%
X43660000Y-122370000D03*
X43660000Y-117370000D03*
%TD*%
D12*
%TO.C,U2*%
X144380000Y-136380000D03*
D13*
X146920000Y-136380000D03*
X149460000Y-136380000D03*
X152000000Y-136380000D03*
X154540000Y-136380000D03*
X157080000Y-136380000D03*
X159620000Y-136380000D03*
X162160000Y-136380000D03*
X164700000Y-136380000D03*
X167240000Y-136380000D03*
X167240000Y-128760000D03*
X164700000Y-128760000D03*
X162160000Y-128760000D03*
X159620000Y-128760000D03*
X157080000Y-128760000D03*
X154540000Y-128760000D03*
X152000000Y-128760000D03*
X149460000Y-128760000D03*
X146920000Y-128760000D03*
X144380000Y-128760000D03*
%TD*%
D14*
%TO.C,C30*%
X135625000Y-72000000D03*
X135625000Y-77000000D03*
%TD*%
D19*
%TO.C,D3*%
X98275000Y-32700000D03*
D20*
X100815000Y-32700000D03*
%TD*%
D12*
%TO.C,U25*%
X82020000Y-94000000D03*
D13*
X84560000Y-94000000D03*
X87100000Y-94000000D03*
X89640000Y-94000000D03*
X92180000Y-94000000D03*
X94720000Y-94000000D03*
X97260000Y-94000000D03*
X99800000Y-94000000D03*
X99800000Y-86380000D03*
X97260000Y-86380000D03*
X94720000Y-86380000D03*
X92180000Y-86380000D03*
X89640000Y-86380000D03*
X87100000Y-86380000D03*
X84560000Y-86380000D03*
X82020000Y-86380000D03*
%TD*%
D14*
%TO.C,R21*%
X100120000Y-40500000D03*
D13*
X92500000Y-40500000D03*
%TD*%
D14*
%TO.C,C4*%
X202040000Y-135310000D03*
X202040000Y-130310000D03*
%TD*%
D12*
%TO.C,RN5*%
X54880000Y-54220000D03*
D13*
X54880000Y-56760000D03*
X54880000Y-59300000D03*
X54880000Y-61840000D03*
X54880000Y-64380000D03*
X54880000Y-66920000D03*
X54880000Y-69460000D03*
X54880000Y-72000000D03*
X62500000Y-72000000D03*
X62500000Y-69460000D03*
X62500000Y-66920000D03*
X62500000Y-64380000D03*
X62500000Y-61840000D03*
X62500000Y-59300000D03*
X62500000Y-56760000D03*
X62500000Y-54220000D03*
%TD*%
D12*
%TO.C,U14*%
X108265000Y-63620000D03*
D13*
X110805000Y-63620000D03*
X113345000Y-63620000D03*
X115885000Y-63620000D03*
X118425000Y-63620000D03*
X120965000Y-63620000D03*
X123505000Y-63620000D03*
X126045000Y-63620000D03*
X128585000Y-63620000D03*
X131125000Y-63620000D03*
X131125000Y-56000000D03*
X128585000Y-56000000D03*
X126045000Y-56000000D03*
X123505000Y-56000000D03*
X120965000Y-56000000D03*
X118425000Y-56000000D03*
X115885000Y-56000000D03*
X113345000Y-56000000D03*
X110805000Y-56000000D03*
X108265000Y-56000000D03*
%TD*%
D10*
%TO.C,JP3*%
X236000000Y-111040000D03*
D11*
X236000000Y-113580000D03*
%TD*%
D12*
%TO.C,U20*%
X144380000Y-119120000D03*
D13*
X146920000Y-119120000D03*
X149460000Y-119120000D03*
X152000000Y-119120000D03*
X154540000Y-119120000D03*
X157080000Y-119120000D03*
X159620000Y-119120000D03*
X162160000Y-119120000D03*
X164700000Y-119120000D03*
X167240000Y-119120000D03*
X167240000Y-111500000D03*
X164700000Y-111500000D03*
X162160000Y-111500000D03*
X159620000Y-111500000D03*
X157080000Y-111500000D03*
X154540000Y-111500000D03*
X152000000Y-111500000D03*
X149460000Y-111500000D03*
X146920000Y-111500000D03*
X144380000Y-111500000D03*
%TD*%
D27*
%TO.C,H3*%
X237500000Y-34000000D03*
%TD*%
D12*
%TO.C,U18*%
X146760000Y-106500000D03*
D13*
X149300000Y-106500000D03*
X151840000Y-106500000D03*
X154380000Y-106500000D03*
X156920000Y-106500000D03*
X159460000Y-106500000D03*
X162000000Y-106500000D03*
X162000000Y-98880000D03*
X159460000Y-98880000D03*
X156920000Y-98880000D03*
X154380000Y-98880000D03*
X151840000Y-98880000D03*
X149300000Y-98880000D03*
X146760000Y-98880000D03*
%TD*%
D12*
%TO.C,U7*%
X47260000Y-123670000D03*
D13*
X49800000Y-123670000D03*
X52340000Y-123670000D03*
X54880000Y-123670000D03*
X57420000Y-123670000D03*
X59960000Y-123670000D03*
X62500000Y-123670000D03*
X65040000Y-123670000D03*
X65040000Y-116050000D03*
X62500000Y-116050000D03*
X59960000Y-116050000D03*
X57420000Y-116050000D03*
X54880000Y-116050000D03*
X52340000Y-116050000D03*
X49800000Y-116050000D03*
X47260000Y-116050000D03*
%TD*%
D12*
%TO.C,U29*%
X139240000Y-94000000D03*
D13*
X141780000Y-94000000D03*
X144320000Y-94000000D03*
X146860000Y-94000000D03*
X149400000Y-94000000D03*
X151940000Y-94000000D03*
X154480000Y-94000000D03*
X157020000Y-94000000D03*
X159560000Y-94000000D03*
X162100000Y-94000000D03*
X162100000Y-86380000D03*
X159560000Y-86380000D03*
X157020000Y-86380000D03*
X154480000Y-86380000D03*
X151940000Y-86380000D03*
X149400000Y-86380000D03*
X146860000Y-86380000D03*
X144320000Y-86380000D03*
X141780000Y-86380000D03*
X139240000Y-86380000D03*
%TD*%
D27*
%TO.C,H5*%
X237500000Y-65100000D03*
%TD*%
D14*
%TO.C,C13*%
X206775000Y-93880000D03*
X206775000Y-96380000D03*
%TD*%
D10*
%TO.C,J5*%
X134460000Y-121880000D03*
D11*
X137000000Y-121880000D03*
X134460000Y-124420000D03*
X137000000Y-124420000D03*
X134460000Y-126960000D03*
X137000000Y-126960000D03*
%TD*%
D14*
%TO.C,C1*%
X46100000Y-130600000D03*
X46100000Y-135600000D03*
%TD*%
D12*
%TO.C,U5*%
X107140000Y-136500000D03*
D13*
X109680000Y-136500000D03*
X112220000Y-136500000D03*
X114760000Y-136500000D03*
X117300000Y-136500000D03*
X119840000Y-136500000D03*
X122380000Y-136500000D03*
X124920000Y-136500000D03*
X127460000Y-136500000D03*
X130000000Y-136500000D03*
X130000000Y-128880000D03*
X127460000Y-128880000D03*
X124920000Y-128880000D03*
X122380000Y-128880000D03*
X119840000Y-128880000D03*
X117300000Y-128880000D03*
X114760000Y-128880000D03*
X112220000Y-128880000D03*
X109680000Y-128880000D03*
X107140000Y-128880000D03*
%TD*%
D12*
%TO.C,U11*%
X210470000Y-65680000D03*
D13*
X213010000Y-65680000D03*
X215550000Y-65680000D03*
X218090000Y-65680000D03*
X220630000Y-65680000D03*
X223170000Y-65680000D03*
X225710000Y-65680000D03*
X228250000Y-65680000D03*
X228250000Y-58060000D03*
X225710000Y-58060000D03*
X223170000Y-58060000D03*
X220630000Y-58060000D03*
X218090000Y-58060000D03*
X215550000Y-58060000D03*
X213010000Y-58060000D03*
X210470000Y-58060000D03*
%TD*%
D14*
%TO.C,C2*%
X141120000Y-135260000D03*
X141120000Y-130260000D03*
%TD*%
%TO.C,C20*%
X140740000Y-113380000D03*
X140740000Y-118380000D03*
%TD*%
D10*
%TO.C,JP2*%
X236000000Y-102040000D03*
D11*
X236000000Y-104580000D03*
%TD*%
D14*
%TO.C,C11*%
X207210000Y-59680000D03*
X207210000Y-64680000D03*
%TD*%
%TO.C,C8*%
X206710000Y-104680000D03*
X206710000Y-99680000D03*
%TD*%
D12*
%TO.C,RN2*%
X110805000Y-51500000D03*
D13*
X113345000Y-51500000D03*
X115885000Y-51500000D03*
X118425000Y-51500000D03*
X120965000Y-51500000D03*
X123505000Y-51500000D03*
X126045000Y-51500000D03*
X128585000Y-51500000D03*
X131125000Y-51500000D03*
%TD*%
D14*
%TO.C,C21*%
X209210000Y-77680000D03*
X209210000Y-72680000D03*
%TD*%
%TO.C,C5*%
X103640000Y-135500000D03*
X103640000Y-130500000D03*
%TD*%
%TO.C,C24*%
X103585000Y-117450000D03*
X103585000Y-122450000D03*
%TD*%
D28*
%TO.C,SW1*%
X55000000Y-37400000D03*
X48500000Y-37400000D03*
X55000000Y-32900000D03*
X48500000Y-32900000D03*
%TD*%
D12*
%TO.C,SW2*%
X120640000Y-41000000D03*
D13*
X123180000Y-41000000D03*
X125720000Y-41000000D03*
X128260000Y-41000000D03*
X130800000Y-41000000D03*
X133340000Y-41000000D03*
X135880000Y-41000000D03*
X138420000Y-41000000D03*
X138420000Y-33380000D03*
X135880000Y-33380000D03*
X133340000Y-33380000D03*
X130800000Y-33380000D03*
X128260000Y-33380000D03*
X125720000Y-33380000D03*
X123180000Y-33380000D03*
X120640000Y-33380000D03*
%TD*%
D14*
%TO.C,C27*%
X166210000Y-83180000D03*
X166210000Y-88180000D03*
%TD*%
%TO.C,C22*%
X201880000Y-113680000D03*
X201880000Y-118680000D03*
%TD*%
D12*
%TO.C,U6*%
X74240000Y-136600000D03*
D13*
X76780000Y-136600000D03*
X79320000Y-136600000D03*
X81860000Y-136600000D03*
X84400000Y-136600000D03*
X86940000Y-136600000D03*
X89480000Y-136600000D03*
X92020000Y-136600000D03*
X94560000Y-136600000D03*
X97100000Y-136600000D03*
X97100000Y-128980000D03*
X94560000Y-128980000D03*
X92020000Y-128980000D03*
X89480000Y-128980000D03*
X86940000Y-128980000D03*
X84400000Y-128980000D03*
X81860000Y-128980000D03*
X79320000Y-128980000D03*
X76780000Y-128980000D03*
X74240000Y-128980000D03*
%TD*%
D14*
%TO.C,C25*%
X71365000Y-117850000D03*
X71365000Y-122850000D03*
%TD*%
%TO.C,C17*%
X135805000Y-57120000D03*
X135805000Y-62120000D03*
%TD*%
D12*
%TO.C,U16*%
X77080000Y-63620000D03*
D13*
X79620000Y-63620000D03*
X82160000Y-63620000D03*
X84700000Y-63620000D03*
X87240000Y-63620000D03*
X89780000Y-63620000D03*
X92320000Y-63620000D03*
X94860000Y-63620000D03*
X97400000Y-63620000D03*
X99940000Y-63620000D03*
X99940000Y-56000000D03*
X97400000Y-56000000D03*
X94860000Y-56000000D03*
X92320000Y-56000000D03*
X89780000Y-56000000D03*
X87240000Y-56000000D03*
X84700000Y-56000000D03*
X82160000Y-56000000D03*
X79620000Y-56000000D03*
X77080000Y-56000000D03*
%TD*%
D14*
%TO.C,C29*%
X135600000Y-88060000D03*
X135600000Y-93060000D03*
%TD*%
%TO.C,R19*%
X75000000Y-108040000D03*
D13*
X75000000Y-100420000D03*
%TD*%
D29*
%TO.C,H1*%
X237500000Y-125400000D03*
%TD*%
D12*
%TO.C,U19*%
X174835000Y-48680000D03*
D13*
X177375000Y-48680000D03*
X179915000Y-48680000D03*
X182455000Y-48680000D03*
X184995000Y-48680000D03*
X187535000Y-48680000D03*
X190075000Y-48680000D03*
X192615000Y-48680000D03*
X195155000Y-48680000D03*
X197695000Y-48680000D03*
X200235000Y-48680000D03*
X202775000Y-48680000D03*
X202775000Y-33440000D03*
X200235000Y-33440000D03*
X197695000Y-33440000D03*
X195155000Y-33440000D03*
X192615000Y-33440000D03*
X190075000Y-33440000D03*
X187535000Y-33440000D03*
X184995000Y-33440000D03*
X182455000Y-33440000D03*
X179915000Y-33440000D03*
X177375000Y-33440000D03*
X174835000Y-33440000D03*
%TD*%
D12*
%TO.C,U21*%
X213010000Y-78880000D03*
D13*
X215550000Y-78880000D03*
X218090000Y-78880000D03*
X220630000Y-78880000D03*
X223170000Y-78880000D03*
X225710000Y-78880000D03*
X228250000Y-78880000D03*
X228250000Y-71260000D03*
X225710000Y-71260000D03*
X223170000Y-71260000D03*
X220630000Y-71260000D03*
X218090000Y-71260000D03*
X215550000Y-71260000D03*
X213010000Y-71260000D03*
%TD*%
D14*
%TO.C,R23*%
X92380000Y-44000000D03*
D13*
X100000000Y-44000000D03*
%TD*%
D14*
%TO.C,R18*%
X79000000Y-107920000D03*
D13*
X79000000Y-100300000D03*
%TD*%
D12*
%TO.C,U10*%
X213035000Y-92300000D03*
D13*
X215575000Y-92300000D03*
X218115000Y-92300000D03*
X220655000Y-92300000D03*
X223195000Y-92300000D03*
X225735000Y-92300000D03*
X228275000Y-92300000D03*
X228275000Y-84680000D03*
X225735000Y-84680000D03*
X223195000Y-84680000D03*
X220655000Y-84680000D03*
X218115000Y-84680000D03*
X215575000Y-84680000D03*
X213035000Y-84680000D03*
%TD*%
D14*
%TO.C,C3*%
X171320000Y-135130000D03*
X171320000Y-130130000D03*
%TD*%
D27*
%TO.C,H4*%
X237500000Y-137900000D03*
%TD*%
D21*
%TO.C,RV2*%
X84000000Y-101420000D03*
X86540000Y-103960000D03*
X84000000Y-106500000D03*
%TD*%
D10*
%TO.C,J7*%
X235800000Y-46620000D03*
D11*
X238340000Y-46620000D03*
X235800000Y-49160000D03*
X238340000Y-49160000D03*
X235800000Y-51700000D03*
X238340000Y-51700000D03*
%TD*%
D14*
%TO.C,C26*%
X91000000Y-102420000D03*
X91000000Y-104920000D03*
%TD*%
D12*
%TO.C,U9*%
X175140000Y-119120000D03*
D13*
X177680000Y-119120000D03*
X180220000Y-119120000D03*
X182760000Y-119120000D03*
X185300000Y-119120000D03*
X187840000Y-119120000D03*
X190380000Y-119120000D03*
X192920000Y-119120000D03*
X195460000Y-119120000D03*
X198000000Y-119120000D03*
X198000000Y-111500000D03*
X195460000Y-111500000D03*
X192920000Y-111500000D03*
X190380000Y-111500000D03*
X187840000Y-111500000D03*
X185300000Y-111500000D03*
X182760000Y-111500000D03*
X180220000Y-111500000D03*
X177680000Y-111500000D03*
X175140000Y-111500000D03*
%TD*%
D14*
%TO.C,C9*%
X171380000Y-113500000D03*
X171380000Y-118500000D03*
%TD*%
D12*
%TO.C,U17*%
X139265000Y-63620000D03*
D13*
X141805000Y-63620000D03*
X144345000Y-63620000D03*
X146885000Y-63620000D03*
X149425000Y-63620000D03*
X151965000Y-63620000D03*
X154505000Y-63620000D03*
X157045000Y-63620000D03*
X159585000Y-63620000D03*
X162125000Y-63620000D03*
X162125000Y-56000000D03*
X159585000Y-56000000D03*
X157045000Y-56000000D03*
X154505000Y-56000000D03*
X151965000Y-56000000D03*
X149425000Y-56000000D03*
X146885000Y-56000000D03*
X144345000Y-56000000D03*
X141805000Y-56000000D03*
X139265000Y-56000000D03*
%TD*%
D12*
%TO.C,U12*%
X210470000Y-51680000D03*
D13*
X213010000Y-51680000D03*
X215550000Y-51680000D03*
X218090000Y-51680000D03*
X220630000Y-51680000D03*
X223170000Y-51680000D03*
X225710000Y-51680000D03*
X228250000Y-51680000D03*
X228250000Y-44060000D03*
X225710000Y-44060000D03*
X223170000Y-44060000D03*
X220630000Y-44060000D03*
X218090000Y-44060000D03*
X215550000Y-44060000D03*
X213010000Y-44060000D03*
X210470000Y-44060000D03*
%TD*%
D14*
%TO.C,R22*%
X112120000Y-40500000D03*
D13*
X104500000Y-40500000D03*
%TD*%
D10*
%TO.C,J3*%
X210550000Y-37220000D03*
D11*
X210550000Y-34680000D03*
X213090000Y-37220000D03*
X213090000Y-34680000D03*
X215630000Y-37220000D03*
X215630000Y-34680000D03*
X218170000Y-37220000D03*
X218170000Y-34680000D03*
X220710000Y-37220000D03*
X220710000Y-34680000D03*
X223250000Y-37220000D03*
X223250000Y-34680000D03*
X225790000Y-37220000D03*
X225790000Y-34680000D03*
X228330000Y-37220000D03*
X228330000Y-34680000D03*
%TD*%
D12*
%TO.C,RN3*%
X141805000Y-51500000D03*
D13*
X144345000Y-51500000D03*
X146885000Y-51500000D03*
X149425000Y-51500000D03*
X151965000Y-51500000D03*
X154505000Y-51500000D03*
X157045000Y-51500000D03*
X159585000Y-51500000D03*
X162125000Y-51500000D03*
%TD*%
D14*
%TO.C,R24*%
X104380000Y-44000000D03*
D13*
X112000000Y-44000000D03*
%TD*%
D14*
%TO.C,R25*%
X67000000Y-100300000D03*
D13*
X67000000Y-107920000D03*
%TD*%
D12*
%TO.C,D1*%
X95500000Y-108040000D03*
D13*
X95500000Y-100420000D03*
%TD*%
D27*
%TO.C,H2*%
X39700000Y-34000000D03*
%TD*%
D12*
%TO.C,RN6*%
X41000000Y-54380000D03*
D13*
X41000000Y-56920000D03*
X41000000Y-59460000D03*
X41000000Y-62000000D03*
X41000000Y-64540000D03*
X41000000Y-67080000D03*
X41000000Y-69620000D03*
X41000000Y-72160000D03*
X48620000Y-72160000D03*
X48620000Y-69620000D03*
X48620000Y-67080000D03*
X48620000Y-64540000D03*
X48620000Y-62000000D03*
X48620000Y-59460000D03*
X48620000Y-56920000D03*
X48620000Y-54380000D03*
%TD*%
D12*
%TO.C,U1*%
X49860000Y-136600000D03*
D13*
X52400000Y-136600000D03*
X54940000Y-136600000D03*
X57480000Y-136600000D03*
X60020000Y-136600000D03*
X62560000Y-136600000D03*
X65100000Y-136600000D03*
X65100000Y-128980000D03*
X62560000Y-128980000D03*
X60020000Y-128980000D03*
X57480000Y-128980000D03*
X54940000Y-128980000D03*
X52400000Y-128980000D03*
X49860000Y-128980000D03*
%TD*%
M02*
