  0
SECTION
  2
HEADER
  9
$ANGBASE
  50
0.0
  9
$ANGDIR
  70
1
  9
$MEASUREMENT
  70
0
  0
ENDSEC
  0
SECTION
  2
TABLES
  0
TABLE
  2
LTYPE
  70
4
  0
LTYPE
  5
40F
  2
CONTINUOUS
  70
0
  3
Solid line
  72
65
  73
0
  40
0.0
  0
LTYPE
  5
410
  2
DASHDOT
 70
0
  3
Dash Dot ____ _ ____ _
 72
65
 73
4
 40
2.0
 49
1.25
 49
-0.25
 49
0.25
 49
-0.25
  0
LTYPE
  5
411
  2
DASHED
 70
0
  3
Dashed __ __ __ __ __
 72
65
 73
2
 40
0.75
 49
0.5
 49
-0.25
  0
LTYPE
  5
43B
  2
DOTTED
 70
0
  3
Dotted .  .  .  .
 72
65
 73
2
 40
0.2
 49
0.0
 49
-0.2
  0
ENDTAB
  0
TABLE
  2
STYLE
  70
4
  0
STYLE
  2
KICAD
  70
0
  40
0
  41
1
  42
1
  50
0
  71
0
  3
isocp.shx
  0
STYLE
  2
KICADB
  70
0
  40
0
  41
1
  42
1
  50
0
  71
0
  3
isocp.shx
  0
STYLE
  2
KICADI
  70
0
  40
0
  41
1
  42
1
  50
15
  71
0
  3
isocp.shx
  0
STYLE
  2
KICADBI
  70
0
  40
0
  41
1
  42
1
  50
15
  71
0
  3
isocp.shx
  0
ENDTAB
  0
TABLE
  2
LAYER
  70
1
  0
LAYER
  2
BLACK
  70
0
  62
7
  6
CONTINUOUS
  0
ENDTAB
  0
ENDSEC
  0
SECTION
  2
ENTITIES
0
LINE
8
BLACK
6
CONTINUOUS
10
5.6633469685039373
20
-5.933306574803149
11
8.8177165354330711
21
-5.9340551181102361
0
LINE
8
BLACK
6
CONTINUOUS
10
3.5515748031496064
20
-5.9322834645669289
11
5.4153931889763776
21
-5.9330708661417324
0
ARC
8
BLACK
10
5.6633464566929135
20
-5.9083070866141734
40
0.0249994881942155
50
-180.00117301
51
-89.99882699
0
LINE
8
BLACK
6
CONTINUOUS
10
9.5507874015748033
20
-1.2427165354330709
11
9.5507874015748033
21
-5.5338582677165356
0
ARC
8
BLACK
10
5.4153937007874013
20
-5.908070866141732
40
0.0249994881889764
50
-90.00117298
51
-0.00000000
0
LINE
8
BLACK
6
CONTINUOUS
10
5.4409448818897639
20
-5.6259842519685037
11
5.6377952755905509
21
-5.6259842519685037
0
LINE
8
BLACK
6
CONTINUOUS
10
8.8427165354330715
20
-5.6340551181102363
11
9.4507874015748037
21
-5.6338582677165352
0
ARC
8
BLACK
10
1.4385826771653543
20
-5.5316496062992124
40
0.1000019291338583
50
-179.99889469
51
-90.00000000
0
LINE
8
BLACK
6
CONTINUOUS
10
8.8427165354330715
20
-5.6340551181102363
11
8.8427165354330715
21
-5.9090551181102358
0
ARC
8
BLACK
10
3.5515748031496064
20
-5.9072834645669294
40
0.025
50
-180.00000000
51
-90.00000000
0
ARC
8
BLACK
10
8.8177165354330711
20
-5.9090551181102358
40
0.025
50
-90.00000000
51
-0.00000000
0
LINE
8
BLACK
6
CONTINUOUS
10
1.3385826771653544
20
-5.5316515354330704
11
1.3392146062992125
21
-1.2437421653543306
0
ARC
8
BLACK
10
1.4392145669291339
20
-1.243742125984252
40
0.099999960629929
50
-270.00002256
51
-179.99997744
0
ARC
8
BLACK
10
9.4507874015748037
20
-1.2427165354330709
40
0.1
50
0.00000000
51
90.00000000
0
ARC
8
BLACK
10
9.4507874015748037
20
-5.5338582677165356
40
0.1
50
-90.00000000
51
-0.00000000
0
LINE
8
BLACK
6
CONTINUOUS
10
3.526574803149606
20
-5.6322834645669291
11
3.526574803149606
21
-5.9072834645669294
0
LINE
8
BLACK
6
CONTINUOUS
10
1.4392146062992126
20
-1.1437421653543307
11
9.4507874015748037
21
-1.1427165354330708
0
LINE
8
BLACK
6
CONTINUOUS
10
1.4385826771653543
20
-5.631651535433071
11
3.526574803149606
21
-5.6322834645669291
0
LINE
8
BLACK
6
CONTINUOUS
10
5.4403931889763779
20
-5.908070866141732
11
5.4409448818897639
21
-5.6259842519685037
0
LINE
8
BLACK
6
CONTINUOUS
10
5.6383469685039369
20
-5.9083065748031496
11
5.6377952755905509
21
-5.6259842519685037
0
LINE
8
BLACK
6
CONTINUOUS
10
1.9649606299212599
20
-3.323228346456693
11
2.0901574803149607
21
-3.4484251968503936
0
LINE
8
BLACK
6
CONTINUOUS
10
2.0901574803149607
20
-3.323228346456693
11
1.9649606299212599
21
-3.4484251968503936
0
LINE
8
BLACK
6
CONTINUOUS
10
1.9649606299212599
20
-3.9374015748031495
11
2.0901574803149607
21
-4.0625984251968505
0
LINE
8
BLACK
6
CONTINUOUS
10
2.0901574803149607
20
-3.9374015748031495
11
1.9649606299212599
21
-4.0625984251968505
0
CIRCLE
8
BLACK
10
1.5629921259842519
20
-1.3385826771653544
40
0.062992125984252
0
CIRCLE
8
BLACK
10
9.3503937007874018
20
-1.3385826771653544
40
0.062992125984252
0
CIRCLE
8
BLACK
10
9.3503937007874018
20
-2.5629921259842519
40
0.062992125984252
0
CIRCLE
8
BLACK
10
9.3503937007874018
20
-5.4291338582677167
40
0.062992125984252
0
LINE
8
BLACK
6
CONTINUOUS
10
1.4337507086614172
20
-6.0641865354330706
11
1.4337507086614172
21
-5.9854463779527558
0
LINE
8
BLACK
6
CONTINUOUS
10
1.4337507086614172
20
-5.9854463779527558
11
1.452498346456693
21
-5.9854463779527558
0
LINE
8
BLACK
6
CONTINUOUS
10
1.452498346456693
20
-5.9854463779527558
11
1.463746968503937
21
-5.9891959055118109
0
LINE
8
BLACK
6
CONTINUOUS
10
1.463746968503937
20
-5.9891959055118109
11
1.4712460236220473
21
-5.9966949606299211
0
LINE
8
BLACK
6
CONTINUOUS
10
1.4712460236220473
20
-5.9966949606299211
11
1.4749955511811024
21
-6.0041940157480314
0
LINE
8
BLACK
6
CONTINUOUS
10
1.4749955511811024
20
-6.0041940157480314
11
1.4787450787401575
21
-6.0191921259842518
0
LINE
8
BLACK
6
CONTINUOUS
10
1.4787450787401575
20
-6.0191921259842518
11
1.4787450787401575
21
-6.0304407480314959
0
LINE
8
BLACK
6
CONTINUOUS
10
1.4787450787401575
20
-6.0304407480314959
11
1.4749955511811024
21
-6.0454388582677163
0
LINE
8
BLACK
6
CONTINUOUS
10
1.4749955511811024
20
-6.0454388582677163
11
1.4712460236220473
21
-6.0529379133858265
0
LINE
8
BLACK
6
CONTINUOUS
10
1.4712460236220473
20
-6.0529379133858265
11
1.463746968503937
21
-6.0604370078740155
0
LINE
8
BLACK
6
CONTINUOUS
10
1.463746968503937
20
-6.0604370078740155
11
1.452498346456693
21
-6.0641865354330706
0
LINE
8
BLACK
6
CONTINUOUS
10
1.452498346456693
20
-6.0641865354330706
11
1.4337507086614172
21
-6.0641865354330706
0
LINE
8
BLACK
6
CONTINUOUS
10
1.5124908661417322
20
-6.0641865354330706
11
1.5124908661417322
21
-6.0116930708661416
0
LINE
8
BLACK
6
CONTINUOUS
10
1.5124908661417322
20
-6.0266912204724408
11
1.5162403937007873
21
-6.0191921259842518
0
LINE
8
BLACK
6
CONTINUOUS
10
1.5162403937007873
20
-6.0191921259842518
11
1.5199899212598424
21
-6.0154425984251967
0
LINE
8
BLACK
6
CONTINUOUS
10
1.5199899212598424
20
-6.0154425984251967
11
1.5274889763779527
21
-6.0116930708661416
0
LINE
8
BLACK
6
CONTINUOUS
10
1.5274889763779527
20
-6.0116930708661416
11
1.5349880708661416
21
-6.0116930708661416
0
LINE
8
BLACK
6
CONTINUOUS
10
1.5612347637795276
20
-6.0641865354330706
11
1.5612347637795276
21
-6.0116930708661416
0
LINE
8
BLACK
6
CONTINUOUS
10
1.5612347637795276
20
-5.9854463779527558
11
1.5574852362204723
21
-5.9891959055118109
0
LINE
8
BLACK
6
CONTINUOUS
10
1.5574852362204723
20
-5.9891959055118109
11
1.5612347637795276
21
-5.992945433070866
0
LINE
8
BLACK
6
CONTINUOUS
10
1.5612347637795276
20
-5.992945433070866
11
1.5649842913385827
21
-5.9891959055118109
0
LINE
8
BLACK
6
CONTINUOUS
10
1.5649842913385827
20
-5.9891959055118109
11
1.5612347637795276
21
-5.9854463779527558
0
LINE
8
BLACK
6
CONTINUOUS
10
1.5612347637795276
20
-5.9854463779527558
11
1.5612347637795276
21
-5.992945433070866
0
LINE
8
BLACK
6
CONTINUOUS
10
1.6099786614173228
20
-6.0641865354330706
11
1.6024796062992126
21
-6.0604370078740155
0
LINE
8
BLACK
6
CONTINUOUS
10
1.6024796062992126
20
-6.0604370078740155
11
1.5987300787401575
21
-6.0529379133858265
0
LINE
8
BLACK
6
CONTINUOUS
10
1.5987300787401575
20
-6.0529379133858265
11
1.5987300787401575
21
-5.9854463779527558
0
LINE
8
BLACK
6
CONTINUOUS
10
1.6512235039370078
20
-6.0641865354330706
11
1.6437244488188976
21
-6.0604370078740155
0
LINE
8
BLACK
6
CONTINUOUS
10
1.6437244488188976
20
-6.0604370078740155
11
1.6399749212598425
21
-6.0529379133858265
0
LINE
8
BLACK
6
CONTINUOUS
10
1.6399749212598425
20
-6.0529379133858265
11
1.6399749212598425
21
-5.9854463779527558
0
LINE
8
BLACK
6
CONTINUOUS
10
1.7412122834645669
20
-6.0641865354330706
11
1.7412122834645669
21
-5.9854463779527558
0
LINE
8
BLACK
6
CONTINUOUS
10
1.7412122834645669
20
-5.9854463779527558
11
1.7674590157480314
21
-6.0416893307086612
0
LINE
8
BLACK
6
CONTINUOUS
10
1.7674590157480314
20
-6.0416893307086612
11
1.7937057086614172
21
-5.9854463779527558
0
LINE
8
BLACK
6
CONTINUOUS
10
1.7937057086614172
20
-5.9854463779527558
11
1.7937057086614172
21
-6.0641865354330706
0
LINE
8
BLACK
6
CONTINUOUS
10
1.864946811023622
20
-6.0641865354330706
11
1.864946811023622
21
-6.0229416929133857
0
LINE
8
BLACK
6
CONTINUOUS
10
1.864946811023622
20
-6.0229416929133857
11
1.8611972834645669
21
-6.0154425984251967
0
LINE
8
BLACK
6
CONTINUOUS
10
1.8611972834645669
20
-6.0154425984251967
11
1.8536982283464567
21
-6.0116930708661416
0
LINE
8
BLACK
6
CONTINUOUS
10
1.8536982283464567
20
-6.0116930708661416
11
1.8387000787401575
21
-6.0116930708661416
0
LINE
8
BLACK
6
CONTINUOUS
10
1.8387000787401575
20
-6.0116930708661416
11
1.8312010236220473
21
-6.0154425984251967
0
LINE
8
BLACK
6
CONTINUOUS
10
1.864946811023622
20
-6.0604370078740155
11
1.8574477559055118
21
-6.0641865354330706
0
LINE
8
BLACK
6
CONTINUOUS
10
1.8574477559055118
20
-6.0641865354330706
11
1.8387000787401575
21
-6.0641865354330706
0
LINE
8
BLACK
6
CONTINUOUS
10
1.8387000787401575
20
-6.0641865354330706
11
1.8312010236220473
21
-6.0604370078740155
0
LINE
8
BLACK
6
CONTINUOUS
10
1.8312010236220473
20
-6.0604370078740155
11
1.8274514960629922
21
-6.0529379133858265
0
LINE
8
BLACK
6
CONTINUOUS
10
1.8274514960629922
20
-6.0529379133858265
11
1.8274514960629922
21
-6.0454388582677163
0
LINE
8
BLACK
6
CONTINUOUS
10
1.8274514960629922
20
-6.0454388582677163
11
1.8312010236220473
21
-6.0379398031496061
0
LINE
8
BLACK
6
CONTINUOUS
10
1.8312010236220473
20
-6.0379398031496061
11
1.8387000787401575
21
-6.034190275590551
0
LINE
8
BLACK
6
CONTINUOUS
10
1.8387000787401575
20
-6.034190275590551
11
1.8574477559055118
21
-6.034190275590551
0
LINE
8
BLACK
6
CONTINUOUS
10
1.8574477559055118
20
-6.034190275590551
11
1.864946811023622
21
-6.0304407480314959
0
LINE
8
BLACK
6
CONTINUOUS
10
1.9024421259842519
20
-6.0116930708661416
11
1.9024421259842519
21
-6.0904332283464564
0
LINE
8
BLACK
6
CONTINUOUS
10
1.9024421259842519
20
-6.0154425984251967
11
1.9099411811023621
21
-6.0116930708661416
0
LINE
8
BLACK
6
CONTINUOUS
10
1.9099411811023621
20
-6.0116930708661416
11
1.9249393307086613
21
-6.0116930708661416
0
LINE
8
BLACK
6
CONTINUOUS
10
1.9249393307086613
20
-6.0116930708661416
11
1.9324383858267715
21
-6.0154425984251967
0
LINE
8
BLACK
6
CONTINUOUS
10
1.9324383858267715
20
-6.0154425984251967
11
1.9361879133858266
21
-6.0191921259842518
0
LINE
8
BLACK
6
CONTINUOUS
10
1.9361879133858266
20
-6.0191921259842518
11
1.9399374409448817
21
-6.0266912204724408
0
LINE
8
BLACK
6
CONTINUOUS
10
1.9399374409448817
20
-6.0266912204724408
11
1.9399374409448817
21
-6.0491883858267714
0
LINE
8
BLACK
6
CONTINUOUS
10
1.9399374409448817
20
-6.0491883858267714
11
1.9361879133858266
21
-6.0566874409448817
0
LINE
8
BLACK
6
CONTINUOUS
10
1.9361879133858266
20
-6.0566874409448817
11
1.9324383858267715
21
-6.0604370078740155
0
LINE
8
BLACK
6
CONTINUOUS
10
1.9324383858267715
20
-6.0604370078740155
11
1.9249393307086613
21
-6.0641865354330706
0
LINE
8
BLACK
6
CONTINUOUS
10
1.9249393307086613
20
-6.0641865354330706
11
1.9099411811023621
21
-6.0641865354330706
0
LINE
8
BLACK
6
CONTINUOUS
10
1.9099411811023621
20
-6.0641865354330706
11
1.9024421259842519
21
-6.0604370078740155
0
LINE
8
BLACK
6
CONTINUOUS
10
1.9736832283464567
20
-6.0566874409448817
11
1.9774327559055118
21
-6.0604370078740155
0
LINE
8
BLACK
6
CONTINUOUS
10
1.9774327559055118
20
-6.0604370078740155
11
1.9736832283464567
21
-6.0641865354330706
0
LINE
8
BLACK
6
CONTINUOUS
10
1.9736832283464567
20
-6.0641865354330706
11
1.9699337007874016
21
-6.0604370078740155
0
LINE
8
BLACK
6
CONTINUOUS
10
1.9699337007874016
20
-6.0604370078740155
11
1.9736832283464567
21
-6.0566874409448817
0
LINE
8
BLACK
6
CONTINUOUS
10
1.9736832283464567
20
-6.0566874409448817
11
1.9736832283464567
21
-6.0641865354330706
0
LINE
8
BLACK
6
CONTINUOUS
10
1.9736832283464567
20
-6.0154425984251967
11
1.9774327559055118
21
-6.0191921259842518
0
LINE
8
BLACK
6
CONTINUOUS
10
1.9774327559055118
20
-6.0191921259842518
11
1.9736832283464567
21
-6.0229416929133857
0
LINE
8
BLACK
6
CONTINUOUS
10
1.9736832283464567
20
-6.0229416929133857
11
1.9699337007874016
21
-6.0191921259842518
0
LINE
8
BLACK
6
CONTINUOUS
10
1.9699337007874016
20
-6.0191921259842518
11
1.9736832283464567
21
-6.0154425984251967
0
LINE
8
BLACK
6
CONTINUOUS
10
1.9736832283464567
20
-6.0154425984251967
11
1.9736832283464567
21
-6.0229416929133857
0
LINE
8
BLACK
6
CONTINUOUS
10
1.2523425196850393
20
-6.1541535433070864
11
1.3310826771653543
21
-6.2328937007874012
0
LINE
8
BLACK
6
CONTINUOUS
10
1.3310826771653543
20
-6.1541535433070864
11
1.2523425196850393
21
-6.2328937007874012
0
LINE
8
BLACK
6
CONTINUOUS
10
1.426251653543307
20
-6.1508007086614169
11
1.4749955511811024
21
-6.1508007086614169
0
LINE
8
BLACK
6
CONTINUOUS
10
1.4749955511811024
20
-6.1508007086614169
11
1.4487488188976378
21
-6.1807969291338578
0
LINE
8
BLACK
6
CONTINUOUS
10
1.4487488188976378
20
-6.1807969291338578
11
1.4599974409448819
21
-6.1807969291338578
0
LINE
8
BLACK
6
CONTINUOUS
10
1.4599974409448819
20
-6.1807969291338578
11
1.4674964960629922
21
-6.1845464566929129
0
LINE
8
BLACK
6
CONTINUOUS
10
1.4674964960629922
20
-6.1845464566929129
11
1.4712460236220473
21
-6.1882960236220468
0
LINE
8
BLACK
6
CONTINUOUS
10
1.4712460236220473
20
-6.1882960236220468
11
1.4749955511811024
21
-6.195795078740157
0
LINE
8
BLACK
6
CONTINUOUS
10
1.4749955511811024
20
-6.195795078740157
11
1.4749955511811024
21
-6.2145427165354326
0
LINE
8
BLACK
6
CONTINUOUS
10
1.4749955511811024
20
-6.2145427165354326
11
1.4712460236220473
21
-6.2220417716535428
0
LINE
8
BLACK
6
CONTINUOUS
10
1.4712460236220473
20
-6.2220417716535428
11
1.4674964960629922
21
-6.2257913385826766
0
LINE
8
BLACK
6
CONTINUOUS
10
1.4674964960629922
20
-6.2257913385826766
11
1.4599974409448819
21
-6.2295408661417317
0
LINE
8
BLACK
6
CONTINUOUS
10
1.4599974409448819
20
-6.2295408661417317
11
1.4375002362204725
21
-6.2295408661417317
0
LINE
8
BLACK
6
CONTINUOUS
10
1.4375002362204725
20
-6.2295408661417317
11
1.4300011811023621
21
-6.2257913385826766
0
LINE
8
BLACK
6
CONTINUOUS
10
1.4300011811023621
20
-6.2257913385826766
11
1.426251653543307
21
-6.2220417716535428
0
LINE
8
BLACK
6
CONTINUOUS
10
1.5087413385826771
20
-6.2220417716535428
11
1.5124908661417322
21
-6.2257913385826766
0
LINE
8
BLACK
6
CONTINUOUS
10
1.5124908661417322
20
-6.2257913385826766
11
1.5087413385826771
21
-6.2295408661417317
0
LINE
8
BLACK
6
CONTINUOUS
10
1.5087413385826771
20
-6.2295408661417317
11
1.504991811023622
21
-6.2257913385826766
0
LINE
8
BLACK
6
CONTINUOUS
10
1.504991811023622
20
-6.2257913385826766
11
1.5087413385826771
21
-6.2220417716535428
0
LINE
8
BLACK
6
CONTINUOUS
10
1.5087413385826771
20
-6.2220417716535428
11
1.5087413385826771
21
-6.2295408661417317
0
LINE
8
BLACK
6
CONTINUOUS
10
1.5874814960629922
20
-6.2295408661417317
11
1.5424871259842519
21
-6.2295408661417317
0
LINE
8
BLACK
6
CONTINUOUS
10
1.5649842913385827
20
-6.2295408661417317
11
1.5649842913385827
21
-6.1508007086614169
0
LINE
8
BLACK
6
CONTINUOUS
10
1.5649842913385827
20
-6.1508007086614169
11
1.5574852362204723
21
-6.1620492913385823
0
LINE
8
BLACK
6
CONTINUOUS
10
1.5574852362204723
20
-6.1620492913385823
11
1.5499861811023621
21
-6.1695483464566925
0
LINE
8
BLACK
6
CONTINUOUS
10
1.5499861811023621
20
-6.1695483464566925
11
1.5424871259842519
21
-6.1732978740157476
0
LINE
8
BLACK
6
CONTINUOUS
10
1.6324758661417322
20
-6.1845464566929129
11
1.624976811023622
21
-6.1807969291338578
0
LINE
8
BLACK
6
CONTINUOUS
10
1.624976811023622
20
-6.1807969291338578
11
1.6212272834645669
21
-6.1770474015748027
0
LINE
8
BLACK
6
CONTINUOUS
10
1.6212272834645669
20
-6.1770474015748027
11
1.6174777559055118
21
-6.1695483464566925
0
LINE
8
BLACK
6
CONTINUOUS
10
1.6174777559055118
20
-6.1695483464566925
11
1.6174777559055118
21
-6.1657988188976374
0
LINE
8
BLACK
6
CONTINUOUS
10
1.6174777559055118
20
-6.1657988188976374
11
1.6212272834645669
21
-6.1582997637795271
0
LINE
8
BLACK
6
CONTINUOUS
10
1.6212272834645669
20
-6.1582997637795271
11
1.624976811023622
21
-6.154550236220472
0
LINE
8
BLACK
6
CONTINUOUS
10
1.624976811023622
20
-6.154550236220472
11
1.6324758661417322
21
-6.1508007086614169
0
LINE
8
BLACK
6
CONTINUOUS
10
1.6324758661417322
20
-6.1508007086614169
11
1.6474740157480314
21
-6.1508007086614169
0
LINE
8
BLACK
6
CONTINUOUS
10
1.6474740157480314
20
-6.1508007086614169
11
1.6549730708661416
21
-6.154550236220472
0
LINE
8
BLACK
6
CONTINUOUS
10
1.6549730708661416
20
-6.154550236220472
11
1.6587225984251968
21
-6.1582997637795271
0
LINE
8
BLACK
6
CONTINUOUS
10
1.6587225984251968
20
-6.1582997637795271
11
1.6624721259842519
21
-6.1657988188976374
0
LINE
8
BLACK
6
CONTINUOUS
10
1.6624721259842519
20
-6.1657988188976374
11
1.6624721259842519
21
-6.1695483464566925
0
LINE
8
BLACK
6
CONTINUOUS
10
1.6624721259842519
20
-6.1695483464566925
11
1.6587225984251968
21
-6.1770474015748027
0
LINE
8
BLACK
6
CONTINUOUS
10
1.6587225984251968
20
-6.1770474015748027
11
1.6549730708661416
21
-6.1807969291338578
0
LINE
8
BLACK
6
CONTINUOUS
10
1.6549730708661416
20
-6.1807969291338578
11
1.6474740157480314
21
-6.1845464566929129
0
LINE
8
BLACK
6
CONTINUOUS
10
1.6474740157480314
20
-6.1845464566929129
11
1.6324758661417322
21
-6.1845464566929129
0
LINE
8
BLACK
6
CONTINUOUS
10
1.6324758661417322
20
-6.1845464566929129
11
1.624976811023622
21
-6.1882960236220468
0
LINE
8
BLACK
6
CONTINUOUS
10
1.624976811023622
20
-6.1882960236220468
11
1.6212272834645669
21
-6.1920455511811019
0
LINE
8
BLACK
6
CONTINUOUS
10
1.6212272834645669
20
-6.1920455511811019
11
1.6174777559055118
21
-6.1995446062992121
0
LINE
8
BLACK
6
CONTINUOUS
10
1.6174777559055118
20
-6.1995446062992121
11
1.6174777559055118
21
-6.2145427165354326
0
LINE
8
BLACK
6
CONTINUOUS
10
1.6174777559055118
20
-6.2145427165354326
11
1.6212272834645669
21
-6.2220417716535428
0
LINE
8
BLACK
6
CONTINUOUS
10
1.6212272834645669
20
-6.2220417716535428
11
1.624976811023622
21
-6.2257913385826766
0
LINE
8
BLACK
6
CONTINUOUS
10
1.624976811023622
20
-6.2257913385826766
11
1.6324758661417322
21
-6.2295408661417317
0
LINE
8
BLACK
6
CONTINUOUS
10
1.6324758661417322
20
-6.2295408661417317
11
1.6474740157480314
21
-6.2295408661417317
0
LINE
8
BLACK
6
CONTINUOUS
10
1.6474740157480314
20
-6.2295408661417317
11
1.6549730708661416
21
-6.2257913385826766
0
LINE
8
BLACK
6
CONTINUOUS
10
1.6549730708661416
20
-6.2257913385826766
11
1.6587225984251968
21
-6.2220417716535428
0
LINE
8
BLACK
6
CONTINUOUS
10
1.6587225984251968
20
-6.2220417716535428
11
1.6624721259842519
21
-6.2145427165354326
0
LINE
8
BLACK
6
CONTINUOUS
10
1.6624721259842519
20
-6.2145427165354326
11
1.6624721259842519
21
-6.1995446062992121
0
LINE
8
BLACK
6
CONTINUOUS
10
1.6624721259842519
20
-6.1995446062992121
11
1.6587225984251968
21
-6.1920455511811019
0
LINE
8
BLACK
6
CONTINUOUS
10
1.6587225984251968
20
-6.1920455511811019
11
1.6549730708661416
21
-6.1882960236220468
0
LINE
8
BLACK
6
CONTINUOUS
10
1.6549730708661416
20
-6.1882960236220468
11
1.6474740157480314
21
-6.1845464566929129
0
LINE
8
BLACK
6
CONTINUOUS
10
1.7112160236220473
20
-6.1508007086614169
11
1.7187151181102363
21
-6.1508007086614169
0
LINE
8
BLACK
6
CONTINUOUS
10
1.7187151181102363
20
-6.1508007086614169
11
1.7262141732283465
21
-6.154550236220472
0
LINE
8
BLACK
6
CONTINUOUS
10
1.7262141732283465
20
-6.154550236220472
11
1.7299637007874016
21
-6.1582997637795271
0
LINE
8
BLACK
6
CONTINUOUS
10
1.7299637007874016
20
-6.1582997637795271
11
1.7337132283464567
21
-6.1657988188976374
0
LINE
8
BLACK
6
CONTINUOUS
10
1.7337132283464567
20
-6.1657988188976374
11
1.7374627559055118
21
-6.1807969291338578
0
LINE
8
BLACK
6
CONTINUOUS
10
1.7374627559055118
20
-6.1807969291338578
11
1.7374627559055118
21
-6.1995446062992121
0
LINE
8
BLACK
6
CONTINUOUS
10
1.7374627559055118
20
-6.1995446062992121
11
1.7337132283464567
21
-6.2145427165354326
0
LINE
8
BLACK
6
CONTINUOUS
10
1.7337132283464567
20
-6.2145427165354326
11
1.7299637007874016
21
-6.2220417716535428
0
LINE
8
BLACK
6
CONTINUOUS
10
1.7299637007874016
20
-6.2220417716535428
11
1.7262141732283465
21
-6.2257913385826766
0
LINE
8
BLACK
6
CONTINUOUS
10
1.7262141732283465
20
-6.2257913385826766
11
1.7187151181102363
21
-6.2295408661417317
0
LINE
8
BLACK
6
CONTINUOUS
10
1.7187151181102363
20
-6.2295408661417317
11
1.7112160236220473
21
-6.2295408661417317
0
LINE
8
BLACK
6
CONTINUOUS
10
1.7112160236220473
20
-6.2295408661417317
11
1.7037169685039371
21
-6.2257913385826766
0
LINE
8
BLACK
6
CONTINUOUS
10
1.7037169685039371
20
-6.2257913385826766
11
1.6999674409448819
21
-6.2220417716535428
0
LINE
8
BLACK
6
CONTINUOUS
10
1.6999674409448819
20
-6.2220417716535428
11
1.6962179133858268
21
-6.2145427165354326
0
LINE
8
BLACK
6
CONTINUOUS
10
1.6962179133858268
20
-6.2145427165354326
11
1.6924683858267715
21
-6.1995446062992121
0
LINE
8
BLACK
6
CONTINUOUS
10
1.6924683858267715
20
-6.1995446062992121
11
1.6924683858267715
21
-6.1807969291338578
0
LINE
8
BLACK
6
CONTINUOUS
10
1.6924683858267715
20
-6.1807969291338578
11
1.6962179133858268
21
-6.1657988188976374
0
LINE
8
BLACK
6
CONTINUOUS
10
1.6962179133858268
20
-6.1657988188976374
11
1.6999674409448819
21
-6.1582997637795271
0
LINE
8
BLACK
6
CONTINUOUS
10
1.6999674409448819
20
-6.1582997637795271
11
1.7037169685039371
21
-6.154550236220472
0
LINE
8
BLACK
6
CONTINUOUS
10
1.7037169685039371
20
-6.154550236220472
11
1.7112160236220473
21
-6.1508007086614169
0
LINE
8
BLACK
6
CONTINUOUS
10
1.7712085433070865
20
-6.2295408661417317
11
1.7712085433070865
21
-6.1770474015748027
0
LINE
8
BLACK
6
CONTINUOUS
10
1.7712085433070865
20
-6.1845464566929129
11
1.7749580708661417
21
-6.1807969291338578
0
LINE
8
BLACK
6
CONTINUOUS
10
1.7749580708661417
20
-6.1807969291338578
11
1.7824571259842519
21
-6.1770474015748027
0
LINE
8
BLACK
6
CONTINUOUS
10
1.7824571259842519
20
-6.1770474015748027
11
1.793705748031496
21
-6.1770474015748027
0
LINE
8
BLACK
6
CONTINUOUS
10
1.793705748031496
20
-6.1770474015748027
11
1.8012048031496062
21
-6.1807969291338578
0
LINE
8
BLACK
6
CONTINUOUS
10
1.8012048031496062
20
-6.1807969291338578
11
1.8049543307086613
21
-6.1882960236220468
0
LINE
8
BLACK
6
CONTINUOUS
10
1.8049543307086613
20
-6.1882960236220468
11
1.8049543307086613
21
-6.2295408661417317
0
LINE
8
BLACK
6
CONTINUOUS
10
1.8049543307086613
20
-6.1882960236220468
11
1.8087038582677164
21
-6.1807969291338578
0
LINE
8
BLACK
6
CONTINUOUS
10
1.8087038582677164
20
-6.1807969291338578
11
1.8162029133858266
21
-6.1770474015748027
0
LINE
8
BLACK
6
CONTINUOUS
10
1.8162029133858266
20
-6.1770474015748027
11
1.8274514960629922
21
-6.1770474015748027
0
LINE
8
BLACK
6
CONTINUOUS
10
1.8274514960629922
20
-6.1770474015748027
11
1.8349505905511811
21
-6.1807969291338578
0
LINE
8
BLACK
6
CONTINUOUS
10
1.8349505905511811
20
-6.1807969291338578
11
1.8387001181102363
21
-6.1882960236220468
0
LINE
8
BLACK
6
CONTINUOUS
10
1.8387001181102363
20
-6.1882960236220468
11
1.8387001181102363
21
-6.2295408661417317
0
LINE
8
BLACK
6
CONTINUOUS
10
1.8761954330708661
20
-6.2295408661417317
11
1.8761954330708661
21
-6.1770474015748027
0
LINE
8
BLACK
6
CONTINUOUS
10
1.8761954330708661
20
-6.1845464566929129
11
1.8799449606299212
21
-6.1807969291338578
0
LINE
8
BLACK
6
CONTINUOUS
10
1.8799449606299212
20
-6.1807969291338578
11
1.8874440157480314
21
-6.1770474015748027
0
LINE
8
BLACK
6
CONTINUOUS
10
1.8874440157480314
20
-6.1770474015748027
11
1.8986926377952755
21
-6.1770474015748027
0
LINE
8
BLACK
6
CONTINUOUS
10
1.8986926377952755
20
-6.1770474015748027
11
1.9061916929133857
21
-6.1807969291338578
0
LINE
8
BLACK
6
CONTINUOUS
10
1.9061916929133857
20
-6.1807969291338578
11
1.9099412204724409
21
-6.1882960236220468
0
LINE
8
BLACK
6
CONTINUOUS
10
1.9099412204724409
20
-6.1882960236220468
11
1.9099412204724409
21
-6.2295408661417317
0
LINE
8
BLACK
6
CONTINUOUS
10
1.9099412204724409
20
-6.1882960236220468
11
1.913690748031496
21
-6.1807969291338578
0
LINE
8
BLACK
6
CONTINUOUS
10
1.913690748031496
20
-6.1807969291338578
11
1.9211898031496062
21
-6.1770474015748027
0
LINE
8
BLACK
6
CONTINUOUS
10
1.9211898031496062
20
-6.1770474015748027
11
1.9324383858267715
21
-6.1770474015748027
0
LINE
8
BLACK
6
CONTINUOUS
10
1.9324383858267715
20
-6.1770474015748027
11
1.9399374803149605
21
-6.1807969291338578
0
LINE
8
BLACK
6
CONTINUOUS
10
1.9399374803149605
20
-6.1807969291338578
11
1.9436870078740156
21
-6.1882960236220468
0
LINE
8
BLACK
6
CONTINUOUS
10
1.9436870078740156
20
-6.1882960236220468
11
1.9436870078740156
21
-6.2295408661417317
0
LINE
8
BLACK
6
CONTINUOUS
10
2.0974177952755904
20
-6.1470511811023618
11
2.0299262598425196
21
-6.2482885039370073
0
LINE
8
BLACK
6
CONTINUOUS
10
2.198655157480315
20
-6.1508007086614169
11
2.206154251968504
21
-6.1508007086614169
0
LINE
8
BLACK
6
CONTINUOUS
10
2.206154251968504
20
-6.1508007086614169
11
2.2136533070866142
21
-6.154550236220472
0
LINE
8
BLACK
6
CONTINUOUS
10
2.2136533070866142
20
-6.154550236220472
11
2.2174028346456693
21
-6.1582997637795271
0
LINE
8
BLACK
6
CONTINUOUS
10
2.2174028346456693
20
-6.1582997637795271
11
2.2211523622047245
21
-6.1657988188976374
0
LINE
8
BLACK
6
CONTINUOUS
10
2.2211523622047245
20
-6.1657988188976374
11
2.2249018897637796
21
-6.1807969291338578
0
LINE
8
BLACK
6
CONTINUOUS
10
2.2249018897637796
20
-6.1807969291338578
11
2.2249018897637796
21
-6.1995446062992121
0
LINE
8
BLACK
6
CONTINUOUS
10
2.2249018897637796
20
-6.1995446062992121
11
2.2211523622047245
21
-6.2145427165354326
0
LINE
8
BLACK
6
CONTINUOUS
10
2.2211523622047245
20
-6.2145427165354326
11
2.2174028346456693
21
-6.2220417716535428
0
LINE
8
BLACK
6
CONTINUOUS
10
2.2174028346456693
20
-6.2220417716535428
11
2.2136533070866142
21
-6.2257913385826766
0
LINE
8
BLACK
6
CONTINUOUS
10
2.2136533070866142
20
-6.2257913385826766
11
2.206154251968504
21
-6.2295408661417317
0
LINE
8
BLACK
6
CONTINUOUS
10
2.206154251968504
20
-6.2295408661417317
11
2.198655157480315
21
-6.2295408661417317
0
LINE
8
BLACK
6
CONTINUOUS
10
2.198655157480315
20
-6.2295408661417317
11
2.1911561023622048
21
-6.2257913385826766
0
LINE
8
BLACK
6
CONTINUOUS
10
2.1911561023622048
20
-6.2257913385826766
11
2.1874065748031497
21
-6.2220417716535428
0
LINE
8
BLACK
6
CONTINUOUS
10
2.1874065748031497
20
-6.2220417716535428
11
2.1836570472440946
21
-6.2145427165354326
0
LINE
8
BLACK
6
CONTINUOUS
10
2.1836570472440946
20
-6.2145427165354326
11
2.1799075196850395
21
-6.1995446062992121
0
LINE
8
BLACK
6
CONTINUOUS
10
2.1799075196850395
20
-6.1995446062992121
11
2.1799075196850395
21
-6.1807969291338578
0
LINE
8
BLACK
6
CONTINUOUS
10
2.1799075196850395
20
-6.1807969291338578
11
2.1836570472440946
21
-6.1657988188976374
0
LINE
8
BLACK
6
CONTINUOUS
10
2.1836570472440946
20
-6.1657988188976374
11
2.1874065748031497
21
-6.1582997637795271
0
LINE
8
BLACK
6
CONTINUOUS
10
2.1874065748031497
20
-6.1582997637795271
11
2.1911561023622048
21
-6.154550236220472
0
LINE
8
BLACK
6
CONTINUOUS
10
2.1911561023622048
20
-6.154550236220472
11
2.198655157480315
21
-6.1508007086614169
0
LINE
8
BLACK
6
CONTINUOUS
10
2.2586476771653543
20
-6.2220417716535428
11
2.2623972047244094
21
-6.2257913385826766
0
LINE
8
BLACK
6
CONTINUOUS
10
2.2623972047244094
20
-6.2257913385826766
11
2.2586476771653543
21
-6.2295408661417317
0
LINE
8
BLACK
6
CONTINUOUS
10
2.2586476771653543
20
-6.2295408661417317
11
2.2548981496062992
21
-6.2257913385826766
0
LINE
8
BLACK
6
CONTINUOUS
10
2.2548981496062992
20
-6.2257913385826766
11
2.2586476771653543
21
-6.2220417716535428
0
LINE
8
BLACK
6
CONTINUOUS
10
2.2586476771653543
20
-6.2220417716535428
11
2.2586476771653543
21
-6.2295408661417317
0
LINE
8
BLACK
6
CONTINUOUS
10
2.3373878346456691
20
-6.2295408661417317
11
2.2923934645669291
21
-6.2295408661417317
0
LINE
8
BLACK
6
CONTINUOUS
10
2.3148906299212597
20
-6.2295408661417317
11
2.3148906299212597
21
-6.1508007086614169
0
LINE
8
BLACK
6
CONTINUOUS
10
2.3148906299212597
20
-6.1508007086614169
11
2.3073915748031495
21
-6.1620492913385823
0
LINE
8
BLACK
6
CONTINUOUS
10
2.3073915748031495
20
-6.1620492913385823
11
2.2998925196850393
21
-6.1695483464566925
0
LINE
8
BLACK
6
CONTINUOUS
10
2.2998925196850393
20
-6.1695483464566925
11
2.2923934645669291
21
-6.1732978740157476
0
LINE
8
BLACK
6
CONTINUOUS
10
2.3673840944881888
20
-6.1582997637795271
11
2.3711336220472439
21
-6.154550236220472
0
LINE
8
BLACK
6
CONTINUOUS
10
2.3711336220472439
20
-6.154550236220472
11
2.3786326771653541
21
-6.1508007086614169
0
LINE
8
BLACK
6
CONTINUOUS
10
2.3786326771653541
20
-6.1508007086614169
11
2.3973803543307084
21
-6.1508007086614169
0
LINE
8
BLACK
6
CONTINUOUS
10
2.3973803543307084
20
-6.1508007086614169
11
2.4048794094488191
21
-6.154550236220472
0
LINE
8
BLACK
6
CONTINUOUS
10
2.4048794094488191
20
-6.154550236220472
11
2.4086289370078742
21
-6.1582997637795271
0
LINE
8
BLACK
6
CONTINUOUS
10
2.4086289370078742
20
-6.1582997637795271
11
2.4123784645669293
21
-6.1657988188976374
0
LINE
8
BLACK
6
CONTINUOUS
10
2.4123784645669293
20
-6.1657988188976374
11
2.4123784645669293
21
-6.1732978740157476
0
LINE
8
BLACK
6
CONTINUOUS
10
2.4123784645669293
20
-6.1732978740157476
11
2.4086289370078742
21
-6.1845464566929129
0
LINE
8
BLACK
6
CONTINUOUS
10
2.4086289370078742
20
-6.1845464566929129
11
2.3636345669291337
21
-6.2295408661417317
0
LINE
8
BLACK
6
CONTINUOUS
10
2.3636345669291337
20
-6.2295408661417317
11
2.4123784645669293
21
-6.2295408661417317
0
LINE
8
BLACK
6
CONTINUOUS
10
2.4836195669291339
20
-6.1508007086614169
11
2.446124251968504
21
-6.1508007086614169
0
LINE
8
BLACK
6
CONTINUOUS
10
2.446124251968504
20
-6.1508007086614169
11
2.4423747244094489
21
-6.1882960236220468
0
LINE
8
BLACK
6
CONTINUOUS
10
2.4423747244094489
20
-6.1882960236220468
11
2.446124251968504
21
-6.1845464566929129
0
LINE
8
BLACK
6
CONTINUOUS
10
2.446124251968504
20
-6.1845464566929129
11
2.4536233070866142
21
-6.1807969291338578
0
LINE
8
BLACK
6
CONTINUOUS
10
2.4536233070866142
20
-6.1807969291338578
11
2.4723709842519686
21
-6.1807969291338578
0
LINE
8
BLACK
6
CONTINUOUS
10
2.4723709842519686
20
-6.1807969291338578
11
2.4798700393700788
21
-6.1845464566929129
0
LINE
8
BLACK
6
CONTINUOUS
10
2.4798700393700788
20
-6.1845464566929129
11
2.4836195669291339
21
-6.1882960236220468
0
LINE
8
BLACK
6
CONTINUOUS
10
2.4836195669291339
20
-6.1882960236220468
11
2.487369094488189
21
-6.195795078740157
0
LINE
8
BLACK
6
CONTINUOUS
10
2.487369094488189
20
-6.195795078740157
11
2.487369094488189
21
-6.2145427165354326
0
LINE
8
BLACK
6
CONTINUOUS
10
2.487369094488189
20
-6.2145427165354326
11
2.4836195669291339
21
-6.2220417716535428
0
LINE
8
BLACK
6
CONTINUOUS
10
2.4836195669291339
20
-6.2220417716535428
11
2.4798700393700788
21
-6.2257913385826766
0
LINE
8
BLACK
6
CONTINUOUS
10
2.4798700393700788
20
-6.2257913385826766
11
2.4723709842519686
21
-6.2295408661417317
0
LINE
8
BLACK
6
CONTINUOUS
10
2.4723709842519686
20
-6.2295408661417317
11
2.4536233070866142
21
-6.2295408661417317
0
LINE
8
BLACK
6
CONTINUOUS
10
2.4536233070866142
20
-6.2295408661417317
11
2.446124251968504
21
-6.2257913385826766
0
LINE
8
BLACK
6
CONTINUOUS
10
2.446124251968504
20
-6.2257913385826766
11
2.4423747244094489
21
-6.2220417716535428
0
LINE
8
BLACK
6
CONTINUOUS
10
2.5173653543307086
20
-6.1582997637795271
11
2.5211148818897637
21
-6.154550236220472
0
LINE
8
BLACK
6
CONTINUOUS
10
2.5211148818897637
20
-6.154550236220472
11
2.528613937007874
21
-6.1508007086614169
0
LINE
8
BLACK
6
CONTINUOUS
10
2.528613937007874
20
-6.1508007086614169
11
2.5473616141732283
21
-6.1508007086614169
0
LINE
8
BLACK
6
CONTINUOUS
10
2.5473616141732283
20
-6.1508007086614169
11
2.5548606692913385
21
-6.154550236220472
0
LINE
8
BLACK
6
CONTINUOUS
10
2.5548606692913385
20
-6.154550236220472
11
2.5586101968503936
21
-6.1582997637795271
0
LINE
8
BLACK
6
CONTINUOUS
10
2.5586101968503936
20
-6.1582997637795271
11
2.5623597244094487
21
-6.1657988188976374
0
LINE
8
BLACK
6
CONTINUOUS
10
2.5623597244094487
20
-6.1657988188976374
11
2.5623597244094487
21
-6.1732978740157476
0
LINE
8
BLACK
6
CONTINUOUS
10
2.5623597244094487
20
-6.1732978740157476
11
2.5586101968503936
21
-6.1845464566929129
0
LINE
8
BLACK
6
CONTINUOUS
10
2.5586101968503936
20
-6.1845464566929129
11
2.5136158267716535
21
-6.2295408661417317
0
LINE
8
BLACK
6
CONTINUOUS
10
2.5136158267716535
20
-6.2295408661417317
11
2.5623597244094487
21
-6.2295408661417317
0
LINE
8
BLACK
6
CONTINUOUS
10
2.5923559842519683
20
-6.1508007086614169
11
2.5923559842519683
21
-6.1657988188976374
0
LINE
8
BLACK
6
CONTINUOUS
10
2.622352244094488
20
-6.1508007086614169
11
2.622352244094488
21
-6.1657988188976374
0
LINE
8
BLACK
6
CONTINUOUS
10
2.7385877559055118
20
-6.2595370866141735
11
2.734838188976378
21
-6.2557875590551184
0
LINE
8
BLACK
6
CONTINUOUS
10
2.734838188976378
20
-6.2557875590551184
11
2.7273391338582678
21
-6.2445389763779522
0
LINE
8
BLACK
6
CONTINUOUS
10
2.7273391338582678
20
-6.2445389763779522
11
2.7235896062992127
21
-6.237039921259842
0
LINE
8
BLACK
6
CONTINUOUS
10
2.7235896062992127
20
-6.237039921259842
11
2.7198400787401575
21
-6.2257913385826766
0
LINE
8
BLACK
6
CONTINUOUS
10
2.7198400787401575
20
-6.2257913385826766
11
2.7160905511811024
21
-6.2070436614173223
0
LINE
8
BLACK
6
CONTINUOUS
10
2.7160905511811024
20
-6.2070436614173223
11
2.7160905511811024
21
-6.1920455511811019
0
LINE
8
BLACK
6
CONTINUOUS
10
2.7160905511811024
20
-6.1920455511811019
11
2.7198400787401575
21
-6.1732978740157476
0
LINE
8
BLACK
6
CONTINUOUS
10
2.7198400787401575
20
-6.1732978740157476
11
2.7235896062992127
21
-6.1620492913385823
0
LINE
8
BLACK
6
CONTINUOUS
10
2.7235896062992127
20
-6.1620492913385823
11
2.7273391338582678
21
-6.154550236220472
0
LINE
8
BLACK
6
CONTINUOUS
10
2.7273391338582678
20
-6.154550236220472
11
2.734838188976378
21
-6.143301614173228
0
LINE
8
BLACK
6
CONTINUOUS
10
2.734838188976378
20
-6.143301614173228
11
2.7385877559055118
21
-6.1395520866141728
0
LINE
8
BLACK
6
CONTINUOUS
10
2.7648344488188976
20
-6.1582997637795271
11
2.7685839763779527
21
-6.154550236220472
0
LINE
8
BLACK
6
CONTINUOUS
10
2.7685839763779527
20
-6.154550236220472
11
2.7760830314960629
21
-6.1508007086614169
0
LINE
8
BLACK
6
CONTINUOUS
10
2.7760830314960629
20
-6.1508007086614169
11
2.7948307086614173
21
-6.1508007086614169
0
LINE
8
BLACK
6
CONTINUOUS
10
2.7948307086614173
20
-6.1508007086614169
11
2.8023297637795275
21
-6.154550236220472
0
LINE
8
BLACK
6
CONTINUOUS
10
2.8023297637795275
20
-6.154550236220472
11
2.8060792913385826
21
-6.1582997637795271
0
LINE
8
BLACK
6
CONTINUOUS
10
2.8060792913385826
20
-6.1582997637795271
11
2.8098288188976377
21
-6.1657988188976374
0
LINE
8
BLACK
6
CONTINUOUS
10
2.8098288188976377
20
-6.1657988188976374
11
2.8098288188976377
21
-6.1732978740157476
0
LINE
8
BLACK
6
CONTINUOUS
10
2.8098288188976377
20
-6.1732978740157476
11
2.8060792913385826
21
-6.1845464566929129
0
LINE
8
BLACK
6
CONTINUOUS
10
2.8060792913385826
20
-6.1845464566929129
11
2.7610849212598425
21
-6.2295408661417317
0
LINE
8
BLACK
6
CONTINUOUS
10
2.7610849212598425
20
-6.2295408661417317
11
2.8098288188976377
21
-6.2295408661417317
0
LINE
8
BLACK
6
CONTINUOUS
10
2.9035671259842517
20
-6.2295408661417317
11
2.9035671259842517
21
-6.1508007086614169
0
LINE
8
BLACK
6
CONTINUOUS
10
2.9373129133858269
20
-6.2295408661417317
11
2.9373129133858269
21
-6.1882960236220468
0
LINE
8
BLACK
6
CONTINUOUS
10
2.9373129133858269
20
-6.1882960236220468
11
2.9335633858267718
21
-6.1807969291338578
0
LINE
8
BLACK
6
CONTINUOUS
10
2.9335633858267718
20
-6.1807969291338578
11
2.9260643307086616
21
-6.1770474015748027
0
LINE
8
BLACK
6
CONTINUOUS
10
2.9260643307086616
20
-6.1770474015748027
11
2.914815708661417
21
-6.1770474015748027
0
LINE
8
BLACK
6
CONTINUOUS
10
2.914815708661417
20
-6.1770474015748027
11
2.9073166535433068
21
-6.1807969291338578
0
LINE
8
BLACK
6
CONTINUOUS
10
2.9073166535433068
20
-6.1807969291338578
11
2.9035671259842517
21
-6.1845464566929129
0
LINE
8
BLACK
6
CONTINUOUS
10
2.9860568110236221
20
-6.2295408661417317
11
2.9785577559055119
21
-6.2257913385826766
0
LINE
8
BLACK
6
CONTINUOUS
10
2.9785577559055119
20
-6.2257913385826766
11
2.9748082283464568
21
-6.2220417716535428
0
LINE
8
BLACK
6
CONTINUOUS
10
2.9748082283464568
20
-6.2220417716535428
11
2.9710587007874016
21
-6.2145427165354326
0
LINE
8
BLACK
6
CONTINUOUS
10
2.9710587007874016
20
-6.2145427165354326
11
2.9710587007874016
21
-6.1920455511811019
0
LINE
8
BLACK
6
CONTINUOUS
10
2.9710587007874016
20
-6.1920455511811019
11
2.9748082283464568
21
-6.1845464566929129
0
LINE
8
BLACK
6
CONTINUOUS
10
2.9748082283464568
20
-6.1845464566929129
11
2.9785577559055119
21
-6.1807969291338578
0
LINE
8
BLACK
6
CONTINUOUS
10
2.9785577559055119
20
-6.1807969291338578
11
2.9860568110236221
21
-6.1770474015748027
0
LINE
8
BLACK
6
CONTINUOUS
10
2.9860568110236221
20
-6.1770474015748027
11
2.9973054330708662
21
-6.1770474015748027
0
LINE
8
BLACK
6
CONTINUOUS
10
2.9973054330708662
20
-6.1770474015748027
11
3.0048044881889764
21
-6.1807969291338578
0
LINE
8
BLACK
6
CONTINUOUS
10
3.0048044881889764
20
-6.1807969291338578
11
3.0085540157480315
21
-6.1845464566929129
0
LINE
8
BLACK
6
CONTINUOUS
10
3.0085540157480315
20
-6.1845464566929129
11
3.0123035433070866
21
-6.1920455511811019
0
LINE
8
BLACK
6
CONTINUOUS
10
3.0123035433070866
20
-6.1920455511811019
11
3.0123035433070866
21
-6.2145427165354326
0
LINE
8
BLACK
6
CONTINUOUS
10
3.0123035433070866
20
-6.2145427165354326
11
3.0085540157480315
21
-6.2220417716535428
0
LINE
8
BLACK
6
CONTINUOUS
10
3.0085540157480315
20
-6.2220417716535428
11
3.0048044881889764
21
-6.2257913385826766
0
LINE
8
BLACK
6
CONTINUOUS
10
3.0048044881889764
20
-6.2257913385826766
11
2.9973054330708662
21
-6.2295408661417317
0
LINE
8
BLACK
6
CONTINUOUS
10
2.9973054330708662
20
-6.2295408661417317
11
2.9860568110236221
21
-6.2295408661417317
0
LINE
8
BLACK
6
CONTINUOUS
10
3.0572979133858267
20
-6.2295408661417317
11
3.0497988582677165
21
-6.2257913385826766
0
LINE
8
BLACK
6
CONTINUOUS
10
3.0497988582677165
20
-6.2257913385826766
11
3.0460493307086614
21
-6.2182922440944877
0
LINE
8
BLACK
6
CONTINUOUS
10
3.0460493307086614
20
-6.2182922440944877
11
3.0460493307086614
21
-6.1508007086614169
0
LINE
8
BLACK
6
CONTINUOUS
10
3.117290433070866
20
-6.2257913385826766
11
3.1097913779527557
21
-6.2295408661417317
0
LINE
8
BLACK
6
CONTINUOUS
10
3.1097913779527557
20
-6.2295408661417317
11
3.0947932283464565
21
-6.2295408661417317
0
LINE
8
BLACK
6
CONTINUOUS
10
3.0947932283464565
20
-6.2295408661417317
11
3.0872941732283463
21
-6.2257913385826766
0
LINE
8
BLACK
6
CONTINUOUS
10
3.0872941732283463
20
-6.2257913385826766
11
3.0835446456692912
21
-6.2182922440944877
0
LINE
8
BLACK
6
CONTINUOUS
10
3.0835446456692912
20
-6.2182922440944877
11
3.0835446456692912
21
-6.1882960236220468
0
LINE
8
BLACK
6
CONTINUOUS
10
3.0835446456692912
20
-6.1882960236220468
11
3.0872941732283463
21
-6.1807969291338578
0
LINE
8
BLACK
6
CONTINUOUS
10
3.0872941732283463
20
-6.1807969291338578
11
3.0947932283464565
21
-6.1770474015748027
0
LINE
8
BLACK
6
CONTINUOUS
10
3.0947932283464565
20
-6.1770474015748027
11
3.1097913779527557
21
-6.1770474015748027
0
LINE
8
BLACK
6
CONTINUOUS
10
3.1097913779527557
20
-6.1770474015748027
11
3.117290433070866
21
-6.1807969291338578
0
LINE
8
BLACK
6
CONTINUOUS
10
3.117290433070866
20
-6.1807969291338578
11
3.1210399606299211
21
-6.1882960236220468
0
LINE
8
BLACK
6
CONTINUOUS
10
3.1210399606299211
20
-6.1882960236220468
11
3.1210399606299211
21
-6.195795078740157
0
LINE
8
BLACK
6
CONTINUOUS
10
3.1210399606299211
20
-6.195795078740157
11
3.0835446456692912
21
-6.2032941338582672
0
LINE
8
BLACK
6
CONTINUOUS
10
3.1510362204724407
20
-6.2257913385826766
11
3.1585352755905509
21
-6.2295408661417317
0
LINE
8
BLACK
6
CONTINUOUS
10
3.1585352755905509
20
-6.2295408661417317
11
3.1735333858267718
21
-6.2295408661417317
0
LINE
8
BLACK
6
CONTINUOUS
10
3.1735333858267718
20
-6.2295408661417317
11
3.1810324803149608
21
-6.2257913385826766
0
LINE
8
BLACK
6
CONTINUOUS
10
3.1810324803149608
20
-6.2257913385826766
11
3.1847820078740159
21
-6.2182922440944877
0
LINE
8
BLACK
6
CONTINUOUS
10
3.1847820078740159
20
-6.2182922440944877
11
3.1847820078740159
21
-6.2145427165354326
0
LINE
8
BLACK
6
CONTINUOUS
10
3.1847820078740159
20
-6.2145427165354326
11
3.1810324803149608
21
-6.2070436614173223
0
LINE
8
BLACK
6
CONTINUOUS
10
3.1810324803149608
20
-6.2070436614173223
11
3.1735333858267718
21
-6.2032941338582672
0
LINE
8
BLACK
6
CONTINUOUS
10
3.1735333858267718
20
-6.2032941338582672
11
3.162284803149606
21
-6.2032941338582672
0
LINE
8
BLACK
6
CONTINUOUS
10
3.162284803149606
20
-6.2032941338582672
11
3.1547857480314958
21
-6.1995446062992121
0
LINE
8
BLACK
6
CONTINUOUS
10
3.1547857480314958
20
-6.1995446062992121
11
3.1510362204724407
21
-6.1920455511811019
0
LINE
8
BLACK
6
CONTINUOUS
10
3.1510362204724407
20
-6.1920455511811019
11
3.1510362204724407
21
-6.1882960236220468
0
LINE
8
BLACK
6
CONTINUOUS
10
3.1510362204724407
20
-6.1882960236220468
11
3.1547857480314958
21
-6.1807969291338578
0
LINE
8
BLACK
6
CONTINUOUS
10
3.1547857480314958
20
-6.1807969291338578
11
3.162284803149606
21
-6.1770474015748027
0
LINE
8
BLACK
6
CONTINUOUS
10
3.162284803149606
20
-6.1770474015748027
11
3.1735333858267718
21
-6.1770474015748027
0
LINE
8
BLACK
6
CONTINUOUS
10
3.1735333858267718
20
-6.1770474015748027
11
3.1810324803149608
21
-6.1807969291338578
0
LINE
8
BLACK
6
CONTINUOUS
10
3.2110287401574804
20
-6.2595370866141735
11
3.2147782677165355
21
-6.2557875590551184
0
LINE
8
BLACK
6
CONTINUOUS
10
3.2147782677165355
20
-6.2557875590551184
11
3.2222773228346457
21
-6.2445389763779522
0
LINE
8
BLACK
6
CONTINUOUS
10
3.2222773228346457
20
-6.2445389763779522
11
3.2260268503937009
21
-6.237039921259842
0
LINE
8
BLACK
6
CONTINUOUS
10
3.2260268503937009
20
-6.237039921259842
11
3.229776377952756
21
-6.2257913385826766
0
LINE
8
BLACK
6
CONTINUOUS
10
3.229776377952756
20
-6.2257913385826766
11
3.2335259055118111
21
-6.2070436614173223
0
LINE
8
BLACK
6
CONTINUOUS
10
3.2335259055118111
20
-6.2070436614173223
11
3.2335259055118111
21
-6.1920455511811019
0
LINE
8
BLACK
6
CONTINUOUS
10
3.2335259055118111
20
-6.1920455511811019
11
3.229776377952756
21
-6.1732978740157476
0
LINE
8
BLACK
6
CONTINUOUS
10
3.229776377952756
20
-6.1732978740157476
11
3.2260268503937009
21
-6.1620492913385823
0
LINE
8
BLACK
6
CONTINUOUS
10
3.2260268503937009
20
-6.1620492913385823
11
3.2222773228346457
21
-6.154550236220472
0
LINE
8
BLACK
6
CONTINUOUS
10
3.2222773228346457
20
-6.154550236220472
11
3.2147782677165355
21
-6.143301614173228
0
LINE
8
BLACK
6
CONTINUOUS
10
3.2147782677165355
20
-6.143301614173228
11
3.2110287401574804
21
-6.1395520866141728
0
LINE
8
BLACK
6
CONTINUOUS
10
3.3535109448818896
20
-6.2595370866141735
11
3.3497613779527557
21
-6.2557875590551184
0
LINE
8
BLACK
6
CONTINUOUS
10
3.3497613779527557
20
-6.2557875590551184
11
3.3422623228346455
21
-6.2445389763779522
0
LINE
8
BLACK
6
CONTINUOUS
10
3.3422623228346455
20
-6.2445389763779522
11
3.3385127952755904
21
-6.237039921259842
0
LINE
8
BLACK
6
CONTINUOUS
10
3.3385127952755904
20
-6.237039921259842
11
3.3347632677165353
21
-6.2257913385826766
0
LINE
8
BLACK
6
CONTINUOUS
10
3.3347632677165353
20
-6.2257913385826766
11
3.3310137401574802
21
-6.2070436614173223
0
LINE
8
BLACK
6
CONTINUOUS
10
3.3310137401574802
20
-6.2070436614173223
11
3.3310137401574802
21
-6.1920455511811019
0
LINE
8
BLACK
6
CONTINUOUS
10
3.3310137401574802
20
-6.1920455511811019
11
3.3347632677165353
21
-6.1732978740157476
0
LINE
8
BLACK
6
CONTINUOUS
10
3.3347632677165353
20
-6.1732978740157476
11
3.3385127952755904
21
-6.1620492913385823
0
LINE
8
BLACK
6
CONTINUOUS
10
3.3385127952755904
20
-6.1620492913385823
11
3.3422623228346455
21
-6.154550236220472
0
LINE
8
BLACK
6
CONTINUOUS
10
3.3422623228346455
20
-6.154550236220472
11
3.3497613779527557
21
-6.143301614173228
0
LINE
8
BLACK
6
CONTINUOUS
10
3.3497613779527557
20
-6.143301614173228
11
3.3535109448818896
21
-6.1395520866141728
0
LINE
8
BLACK
6
CONTINUOUS
10
3.3835071653543305
20
-6.1770474015748027
11
3.3835071653543305
21
-6.2295408661417317
0
LINE
8
BLACK
6
CONTINUOUS
10
3.3835071653543305
20
-6.1845464566929129
11
3.3872566929133856
21
-6.1807969291338578
0
LINE
8
BLACK
6
CONTINUOUS
10
3.3872566929133856
20
-6.1807969291338578
11
3.3947557480314958
21
-6.1770474015748027
0
LINE
8
BLACK
6
CONTINUOUS
10
3.3947557480314958
20
-6.1770474015748027
11
3.4060043700787399
21
-6.1770474015748027
0
LINE
8
BLACK
6
CONTINUOUS
10
3.4060043700787399
20
-6.1770474015748027
11
3.4135034251968501
21
-6.1807969291338578
0
LINE
8
BLACK
6
CONTINUOUS
10
3.4135034251968501
20
-6.1807969291338578
11
3.4172529527559052
21
-6.1882960236220468
0
LINE
8
BLACK
6
CONTINUOUS
10
3.4172529527559052
20
-6.1882960236220468
11
3.4172529527559052
21
-6.2295408661417317
0
LINE
8
BLACK
6
CONTINUOUS
10
3.4659968503937009
20
-6.2295408661417317
11
3.4584977952755906
21
-6.2257913385826766
0
LINE
8
BLACK
6
CONTINUOUS
10
3.4584977952755906
20
-6.2257913385826766
11
3.4547482677165355
21
-6.2220417716535428
0
LINE
8
BLACK
6
CONTINUOUS
10
3.4547482677165355
20
-6.2220417716535428
11
3.4509987401574804
21
-6.2145427165354326
0
LINE
8
BLACK
6
CONTINUOUS
10
3.4509987401574804
20
-6.2145427165354326
11
3.4509987401574804
21
-6.1920455511811019
0
LINE
8
BLACK
6
CONTINUOUS
10
3.4509987401574804
20
-6.1920455511811019
11
3.4547482677165355
21
-6.1845464566929129
0
LINE
8
BLACK
6
CONTINUOUS
10
3.4547482677165355
20
-6.1845464566929129
11
3.4584977952755906
21
-6.1807969291338578
0
LINE
8
BLACK
6
CONTINUOUS
10
3.4584977952755906
20
-6.1807969291338578
11
3.4659968503937009
21
-6.1770474015748027
0
LINE
8
BLACK
6
CONTINUOUS
10
3.4659968503937009
20
-6.1770474015748027
11
3.477245472440945
21
-6.1770474015748027
0
LINE
8
BLACK
6
CONTINUOUS
10
3.477245472440945
20
-6.1770474015748027
11
3.4847445275590552
21
-6.1807969291338578
0
LINE
8
BLACK
6
CONTINUOUS
10
3.4847445275590552
20
-6.1807969291338578
11
3.4884940551181103
21
-6.1845464566929129
0
LINE
8
BLACK
6
CONTINUOUS
10
3.4884940551181103
20
-6.1845464566929129
11
3.4922435826771654
21
-6.1920455511811019
0
LINE
8
BLACK
6
CONTINUOUS
10
3.4922435826771654
20
-6.1920455511811019
11
3.4922435826771654
21
-6.2145427165354326
0
LINE
8
BLACK
6
CONTINUOUS
10
3.4922435826771654
20
-6.2145427165354326
11
3.4884940551181103
21
-6.2220417716535428
0
LINE
8
BLACK
6
CONTINUOUS
10
3.4884940551181103
20
-6.2220417716535428
11
3.4847445275590552
21
-6.2257913385826766
0
LINE
8
BLACK
6
CONTINUOUS
10
3.4847445275590552
20
-6.2257913385826766
11
3.477245472440945
21
-6.2295408661417317
0
LINE
8
BLACK
6
CONTINUOUS
10
3.477245472440945
20
-6.2295408661417317
11
3.4659968503937009
21
-6.2295408661417317
0
LINE
8
BLACK
6
CONTINUOUS
10
3.5147407874015748
20
-6.1770474015748027
11
3.5447370078740157
21
-6.1770474015748027
0
LINE
8
BLACK
6
CONTINUOUS
10
3.5259893700787401
20
-6.1508007086614169
11
3.5259893700787401
21
-6.2182922440944877
0
LINE
8
BLACK
6
CONTINUOUS
10
3.5259893700787401
20
-6.2182922440944877
11
3.5297388976377952
21
-6.2257913385826766
0
LINE
8
BLACK
6
CONTINUOUS
10
3.5297388976377952
20
-6.2257913385826766
11
3.5372379527559055
21
-6.2295408661417317
0
LINE
8
BLACK
6
CONTINUOUS
10
3.5372379527559055
20
-6.2295408661417317
11
3.5447370078740157
21
-6.2295408661417317
0
LINE
8
BLACK
6
CONTINUOUS
10
3.6309762598425195
20
-6.1770474015748027
11
3.6309762598425195
21
-6.2557875590551184
0
LINE
8
BLACK
6
CONTINUOUS
10
3.6309762598425195
20
-6.1807969291338578
11
3.6384753149606297
21
-6.1770474015748027
0
LINE
8
BLACK
6
CONTINUOUS
10
3.6384753149606297
20
-6.1770474015748027
11
3.6534734645669289
21
-6.1770474015748027
0
LINE
8
BLACK
6
CONTINUOUS
10
3.6534734645669289
20
-6.1770474015748027
11
3.6609725196850391
21
-6.1807969291338578
0
LINE
8
BLACK
6
CONTINUOUS
10
3.6609725196850391
20
-6.1807969291338578
11
3.6647220472440942
21
-6.1845464566929129
0
LINE
8
BLACK
6
CONTINUOUS
10
3.6647220472440942
20
-6.1845464566929129
11
3.6684715748031493
21
-6.1920455511811019
0
LINE
8
BLACK
6
CONTINUOUS
10
3.6684715748031493
20
-6.1920455511811019
11
3.6684715748031493
21
-6.2145427165354326
0
LINE
8
BLACK
6
CONTINUOUS
10
3.6684715748031493
20
-6.2145427165354326
11
3.6647220472440942
21
-6.2220417716535428
0
LINE
8
BLACK
6
CONTINUOUS
10
3.6647220472440942
20
-6.2220417716535428
11
3.6609725196850391
21
-6.2257913385826766
0
LINE
8
BLACK
6
CONTINUOUS
10
3.6609725196850391
20
-6.2257913385826766
11
3.6534734645669289
21
-6.2295408661417317
0
LINE
8
BLACK
6
CONTINUOUS
10
3.6534734645669289
20
-6.2295408661417317
11
3.6384753149606297
21
-6.2295408661417317
0
LINE
8
BLACK
6
CONTINUOUS
10
3.6384753149606297
20
-6.2295408661417317
11
3.6309762598425195
21
-6.2257913385826766
0
LINE
8
BLACK
6
CONTINUOUS
10
3.7134659448818899
20
-6.2295408661417317
11
3.7059668897637796
21
-6.2257913385826766
0
LINE
8
BLACK
6
CONTINUOUS
10
3.7059668897637796
20
-6.2257913385826766
11
3.7022173622047245
21
-6.2182922440944877
0
LINE
8
BLACK
6
CONTINUOUS
10
3.7022173622047245
20
-6.2182922440944877
11
3.7022173622047245
21
-6.1508007086614169
0
LINE
8
BLACK
6
CONTINUOUS
10
3.7772079921259842
20
-6.2295408661417317
11
3.7772079921259842
21
-6.1882960236220468
0
LINE
8
BLACK
6
CONTINUOUS
10
3.7772079921259842
20
-6.1882960236220468
11
3.7734584645669291
21
-6.1807969291338578
0
LINE
8
BLACK
6
CONTINUOUS
10
3.7734584645669291
20
-6.1807969291338578
11
3.7659594094488189
21
-6.1770474015748027
0
LINE
8
BLACK
6
CONTINUOUS
10
3.7659594094488189
20
-6.1770474015748027
11
3.7509612598425197
21
-6.1770474015748027
0
LINE
8
BLACK
6
CONTINUOUS
10
3.7509612598425197
20
-6.1770474015748027
11
3.7434622047244095
21
-6.1807969291338578
0
LINE
8
BLACK
6
CONTINUOUS
10
3.7772079921259842
20
-6.2257913385826766
11
3.769708937007874
21
-6.2295408661417317
0
LINE
8
BLACK
6
CONTINUOUS
10
3.769708937007874
20
-6.2295408661417317
11
3.7509612598425197
21
-6.2295408661417317
0
LINE
8
BLACK
6
CONTINUOUS
10
3.7509612598425197
20
-6.2295408661417317
11
3.7434622047244095
21
-6.2257913385826766
0
LINE
8
BLACK
6
CONTINUOUS
10
3.7434622047244095
20
-6.2257913385826766
11
3.7397126771653544
21
-6.2182922440944877
0
LINE
8
BLACK
6
CONTINUOUS
10
3.7397126771653544
20
-6.2182922440944877
11
3.7397126771653544
21
-6.2107931889763774
0
LINE
8
BLACK
6
CONTINUOUS
10
3.7397126771653544
20
-6.2107931889763774
11
3.7434622047244095
21
-6.2032941338582672
0
LINE
8
BLACK
6
CONTINUOUS
10
3.7434622047244095
20
-6.2032941338582672
11
3.7509612598425197
21
-6.1995446062992121
0
LINE
8
BLACK
6
CONTINUOUS
10
3.7509612598425197
20
-6.1995446062992121
11
3.769708937007874
21
-6.1995446062992121
0
LINE
8
BLACK
6
CONTINUOUS
10
3.769708937007874
20
-6.1995446062992121
11
3.7772079921259842
21
-6.195795078740157
0
LINE
8
BLACK
6
CONTINUOUS
10
3.8034547244094488
20
-6.1770474015748027
11
3.8334509448818896
21
-6.1770474015748027
0
LINE
8
BLACK
6
CONTINUOUS
10
3.8147033070866141
20
-6.1508007086614169
11
3.8147033070866141
21
-6.2182922440944877
0
LINE
8
BLACK
6
CONTINUOUS
10
3.8147033070866141
20
-6.2182922440944877
11
3.8184528346456692
21
-6.2257913385826766
0
LINE
8
BLACK
6
CONTINUOUS
10
3.8184528346456692
20
-6.2257913385826766
11
3.8259518897637794
21
-6.2295408661417317
0
LINE
8
BLACK
6
CONTINUOUS
10
3.8259518897637794
20
-6.2295408661417317
11
3.8334509448818896
21
-6.2295408661417317
0
LINE
8
BLACK
6
CONTINUOUS
10
3.8896939370078738
20
-6.2257913385826766
11
3.8821948818897636
21
-6.2295408661417317
0
LINE
8
BLACK
6
CONTINUOUS
10
3.8821948818897636
20
-6.2295408661417317
11
3.8671967322834644
21
-6.2295408661417317
0
LINE
8
BLACK
6
CONTINUOUS
10
3.8671967322834644
20
-6.2295408661417317
11
3.8596976771653542
21
-6.2257913385826766
0
LINE
8
BLACK
6
CONTINUOUS
10
3.8596976771653542
20
-6.2257913385826766
11
3.8559481496062991
21
-6.2182922440944877
0
LINE
8
BLACK
6
CONTINUOUS
10
3.8559481496062991
20
-6.2182922440944877
11
3.8559481496062991
21
-6.1882960236220468
0
LINE
8
BLACK
6
CONTINUOUS
10
3.8559481496062991
20
-6.1882960236220468
11
3.8596976771653542
21
-6.1807969291338578
0
LINE
8
BLACK
6
CONTINUOUS
10
3.8596976771653542
20
-6.1807969291338578
11
3.8671967322834644
21
-6.1770474015748027
0
LINE
8
BLACK
6
CONTINUOUS
10
3.8671967322834644
20
-6.1770474015748027
11
3.8821948818897636
21
-6.1770474015748027
0
LINE
8
BLACK
6
CONTINUOUS
10
3.8821948818897636
20
-6.1770474015748027
11
3.8896939370078738
21
-6.1807969291338578
0
LINE
8
BLACK
6
CONTINUOUS
10
3.8896939370078738
20
-6.1807969291338578
11
3.8934434645669289
21
-6.1882960236220468
0
LINE
8
BLACK
6
CONTINUOUS
10
3.8934434645669289
20
-6.1882960236220468
11
3.8934434645669289
21
-6.195795078740157
0
LINE
8
BLACK
6
CONTINUOUS
10
3.8934434645669289
20
-6.195795078740157
11
3.8559481496062991
21
-6.2032941338582672
0
LINE
8
BLACK
6
CONTINUOUS
10
3.9609350393700788
20
-6.2295408661417317
11
3.9609350393700788
21
-6.1508007086614169
0
LINE
8
BLACK
6
CONTINUOUS
10
3.9609350393700788
20
-6.2257913385826766
11
3.9534359842519686
21
-6.2295408661417317
0
LINE
8
BLACK
6
CONTINUOUS
10
3.9534359842519686
20
-6.2295408661417317
11
3.938437834645669
21
-6.2295408661417317
0
LINE
8
BLACK
6
CONTINUOUS
10
3.938437834645669
20
-6.2295408661417317
11
3.9309387795275588
21
-6.2257913385826766
0
LINE
8
BLACK
6
CONTINUOUS
10
3.9309387795275588
20
-6.2257913385826766
11
3.9271892519685037
21
-6.2220417716535428
0
LINE
8
BLACK
6
CONTINUOUS
10
3.9271892519685037
20
-6.2220417716535428
11
3.9234397244094485
21
-6.2145427165354326
0
LINE
8
BLACK
6
CONTINUOUS
10
3.9234397244094485
20
-6.2145427165354326
11
3.9234397244094485
21
-6.1920455511811019
0
LINE
8
BLACK
6
CONTINUOUS
10
3.9234397244094485
20
-6.1920455511811019
11
3.9271892519685037
21
-6.1845464566929129
0
LINE
8
BLACK
6
CONTINUOUS
10
3.9271892519685037
20
-6.1845464566929129
11
3.9309387795275588
21
-6.1807969291338578
0
LINE
8
BLACK
6
CONTINUOUS
10
3.9309387795275588
20
-6.1807969291338578
11
3.938437834645669
21
-6.1770474015748027
0
LINE
8
BLACK
6
CONTINUOUS
10
3.938437834645669
20
-6.1770474015748027
11
3.9534359842519686
21
-6.1770474015748027
0
LINE
8
BLACK
6
CONTINUOUS
10
3.9534359842519686
20
-6.1770474015748027
11
3.9609350393700788
21
-6.1807969291338578
0
LINE
8
BLACK
6
CONTINUOUS
10
3.9909312992125985
20
-6.2595370866141735
11
3.9946808267716536
21
-6.2557875590551184
0
LINE
8
BLACK
6
CONTINUOUS
10
3.9946808267716536
20
-6.2557875590551184
11
4.0021798818897638
21
-6.2445389763779522
0
LINE
8
BLACK
6
CONTINUOUS
10
4.0021798818897638
20
-6.2445389763779522
11
4.0059294094488189
21
-6.237039921259842
0
LINE
8
BLACK
6
CONTINUOUS
10
4.0059294094488189
20
-6.237039921259842
11
4.009678937007874
21
-6.2257913385826766
0
LINE
8
BLACK
6
CONTINUOUS
10
4.009678937007874
20
-6.2257913385826766
11
4.0134284645669291
21
-6.2070436614173223
0
LINE
8
BLACK
6
CONTINUOUS
10
4.0134284645669291
20
-6.2070436614173223
11
4.0134284645669291
21
-6.1920455511811019
0
LINE
8
BLACK
6
CONTINUOUS
10
4.0134284645669291
20
-6.1920455511811019
11
4.009678937007874
21
-6.1732978740157476
0
LINE
8
BLACK
6
CONTINUOUS
10
4.009678937007874
20
-6.1732978740157476
11
4.0059294094488189
21
-6.1620492913385823
0
LINE
8
BLACK
6
CONTINUOUS
10
4.0059294094488189
20
-6.1620492913385823
11
4.0021798818897638
21
-6.154550236220472
0
LINE
8
BLACK
6
CONTINUOUS
10
4.0021798818897638
20
-6.154550236220472
11
3.9946808267716536
21
-6.143301614173228
0
LINE
8
BLACK
6
CONTINUOUS
10
3.9946808267716536
20
-6.143301614173228
11
3.9909312992125985
21
-6.1395520866141728
0
CIRCLE
8
BLACK
10
1.2917125984251969
20
-6.3195078740157475
40
0.0393700787401575
0
LINE
8
BLACK
6
CONTINUOUS
10
1.426251653543307
20
-6.2767849606299215
11
1.4749955511811024
21
-6.2767849606299215
0
LINE
8
BLACK
6
CONTINUOUS
10
1.4749955511811024
20
-6.2767849606299215
11
1.4487488188976378
21
-6.3067811811023624
0
LINE
8
BLACK
6
CONTINUOUS
10
1.4487488188976378
20
-6.3067811811023624
11
1.4599974409448819
21
-6.3067811811023624
0
LINE
8
BLACK
6
CONTINUOUS
10
1.4599974409448819
20
-6.3067811811023624
11
1.4674964960629922
21
-6.3105307086614175
0
LINE
8
BLACK
6
CONTINUOUS
10
1.4674964960629922
20
-6.3105307086614175
11
1.4712460236220473
21
-6.3142802755905514
0
LINE
8
BLACK
6
CONTINUOUS
10
1.4712460236220473
20
-6.3142802755905514
11
1.4749955511811024
21
-6.3217793307086616
0
LINE
8
BLACK
6
CONTINUOUS
10
1.4749955511811024
20
-6.3217793307086616
11
1.4749955511811024
21
-6.3405269685039372
0
LINE
8
BLACK
6
CONTINUOUS
10
1.4749955511811024
20
-6.3405269685039372
11
1.4712460236220473
21
-6.3480260236220474
0
LINE
8
BLACK
6
CONTINUOUS
10
1.4712460236220473
20
-6.3480260236220474
11
1.4674964960629922
21
-6.3517755905511812
0
LINE
8
BLACK
6
CONTINUOUS
10
1.4674964960629922
20
-6.3517755905511812
11
1.4599974409448819
21
-6.3555251181102363
0
LINE
8
BLACK
6
CONTINUOUS
10
1.4599974409448819
20
-6.3555251181102363
11
1.4375002362204725
21
-6.3555251181102363
0
LINE
8
BLACK
6
CONTINUOUS
10
1.4375002362204725
20
-6.3555251181102363
11
1.4300011811023621
21
-6.3517755905511812
0
LINE
8
BLACK
6
CONTINUOUS
10
1.4300011811023621
20
-6.3517755905511812
11
1.426251653543307
21
-6.3480260236220474
0
LINE
8
BLACK
6
CONTINUOUS
10
1.5087413385826771
20
-6.3480260236220474
11
1.5124908661417322
21
-6.3517755905511812
0
LINE
8
BLACK
6
CONTINUOUS
10
1.5124908661417322
20
-6.3517755905511812
11
1.5087413385826771
21
-6.3555251181102363
0
LINE
8
BLACK
6
CONTINUOUS
10
1.5087413385826771
20
-6.3555251181102363
11
1.504991811023622
21
-6.3517755905511812
0
LINE
8
BLACK
6
CONTINUOUS
10
1.504991811023622
20
-6.3517755905511812
11
1.5087413385826771
21
-6.3480260236220474
0
LINE
8
BLACK
6
CONTINUOUS
10
1.5087413385826771
20
-6.3480260236220474
11
1.5087413385826771
21
-6.3555251181102363
0
LINE
8
BLACK
6
CONTINUOUS
10
1.5424871259842519
20
-6.2842840157480317
11
1.546236653543307
21
-6.2805344881889766
0
LINE
8
BLACK
6
CONTINUOUS
10
1.546236653543307
20
-6.2805344881889766
11
1.5537357086614172
21
-6.2767849606299215
0
LINE
8
BLACK
6
CONTINUOUS
10
1.5537357086614172
20
-6.2767849606299215
11
1.5724833858267717
21
-6.2767849606299215
0
LINE
8
BLACK
6
CONTINUOUS
10
1.5724833858267717
20
-6.2767849606299215
11
1.5799824409448819
21
-6.2805344881889766
0
LINE
8
BLACK
6
CONTINUOUS
10
1.5799824409448819
20
-6.2805344881889766
11
1.583731968503937
21
-6.2842840157480317
0
LINE
8
BLACK
6
CONTINUOUS
10
1.583731968503937
20
-6.2842840157480317
11
1.5874814960629922
21
-6.291783070866142
0
LINE
8
BLACK
6
CONTINUOUS
10
1.5874814960629922
20
-6.291783070866142
11
1.5874814960629922
21
-6.2992821259842522
0
LINE
8
BLACK
6
CONTINUOUS
10
1.5874814960629922
20
-6.2992821259842522
11
1.583731968503937
21
-6.3105307086614175
0
LINE
8
BLACK
6
CONTINUOUS
10
1.583731968503937
20
-6.3105307086614175
11
1.5387375984251968
21
-6.3555251181102363
0
LINE
8
BLACK
6
CONTINUOUS
10
1.5387375984251968
20
-6.3555251181102363
11
1.5874814960629922
21
-6.3555251181102363
0
LINE
8
BLACK
6
CONTINUOUS
10
1.6362253937007873
20
-6.2767849606299215
11
1.6437244881889763
21
-6.2767849606299215
0
LINE
8
BLACK
6
CONTINUOUS
10
1.6437244881889763
20
-6.2767849606299215
11
1.6512235433070865
21
-6.2805344881889766
0
LINE
8
BLACK
6
CONTINUOUS
10
1.6512235433070865
20
-6.2805344881889766
11
1.6549730708661416
21
-6.2842840157480317
0
LINE
8
BLACK
6
CONTINUOUS
10
1.6549730708661416
20
-6.2842840157480317
11
1.6587225984251968
21
-6.291783070866142
0
LINE
8
BLACK
6
CONTINUOUS
10
1.6587225984251968
20
-6.291783070866142
11
1.6624721259842519
21
-6.3067811811023624
0
LINE
8
BLACK
6
CONTINUOUS
10
1.6624721259842519
20
-6.3067811811023624
11
1.6624721259842519
21
-6.3255288582677167
0
LINE
8
BLACK
6
CONTINUOUS
10
1.6624721259842519
20
-6.3255288582677167
11
1.6587225984251968
21
-6.3405269685039372
0
LINE
8
BLACK
6
CONTINUOUS
10
1.6587225984251968
20
-6.3405269685039372
11
1.6549730708661416
21
-6.3480260236220474
0
LINE
8
BLACK
6
CONTINUOUS
10
1.6549730708661416
20
-6.3480260236220474
11
1.6512235433070865
21
-6.3517755905511812
0
LINE
8
BLACK
6
CONTINUOUS
10
1.6512235433070865
20
-6.3517755905511812
11
1.6437244881889763
21
-6.3555251181102363
0
LINE
8
BLACK
6
CONTINUOUS
10
1.6437244881889763
20
-6.3555251181102363
11
1.6362253937007873
21
-6.3555251181102363
0
LINE
8
BLACK
6
CONTINUOUS
10
1.6362253937007873
20
-6.3555251181102363
11
1.6287263385826771
21
-6.3517755905511812
0
LINE
8
BLACK
6
CONTINUOUS
10
1.6287263385826771
20
-6.3517755905511812
11
1.624976811023622
21
-6.3480260236220474
0
LINE
8
BLACK
6
CONTINUOUS
10
1.624976811023622
20
-6.3480260236220474
11
1.6212272834645669
21
-6.3405269685039372
0
LINE
8
BLACK
6
CONTINUOUS
10
1.6212272834645669
20
-6.3405269685039372
11
1.6174777559055118
21
-6.3255288582677167
0
LINE
8
BLACK
6
CONTINUOUS
10
1.6174777559055118
20
-6.3255288582677167
11
1.6174777559055118
21
-6.3067811811023624
0
LINE
8
BLACK
6
CONTINUOUS
10
1.6174777559055118
20
-6.3067811811023624
11
1.6212272834645669
21
-6.291783070866142
0
LINE
8
BLACK
6
CONTINUOUS
10
1.6212272834645669
20
-6.291783070866142
11
1.624976811023622
21
-6.2842840157480317
0
LINE
8
BLACK
6
CONTINUOUS
10
1.624976811023622
20
-6.2842840157480317
11
1.6287263385826771
21
-6.2805344881889766
0
LINE
8
BLACK
6
CONTINUOUS
10
1.6287263385826771
20
-6.2805344881889766
11
1.6362253937007873
21
-6.2767849606299215
0
LINE
8
BLACK
6
CONTINUOUS
10
1.7112160236220473
20
-6.2767849606299215
11
1.7187151181102363
21
-6.2767849606299215
0
LINE
8
BLACK
6
CONTINUOUS
10
1.7187151181102363
20
-6.2767849606299215
11
1.7262141732283465
21
-6.2805344881889766
0
LINE
8
BLACK
6
CONTINUOUS
10
1.7262141732283465
20
-6.2805344881889766
11
1.7299637007874016
21
-6.2842840157480317
0
LINE
8
BLACK
6
CONTINUOUS
10
1.7299637007874016
20
-6.2842840157480317
11
1.7337132283464567
21
-6.291783070866142
0
LINE
8
BLACK
6
CONTINUOUS
10
1.7337132283464567
20
-6.291783070866142
11
1.7374627559055118
21
-6.3067811811023624
0
LINE
8
BLACK
6
CONTINUOUS
10
1.7374627559055118
20
-6.3067811811023624
11
1.7374627559055118
21
-6.3255288582677167
0
LINE
8
BLACK
6
CONTINUOUS
10
1.7374627559055118
20
-6.3255288582677167
11
1.7337132283464567
21
-6.3405269685039372
0
LINE
8
BLACK
6
CONTINUOUS
10
1.7337132283464567
20
-6.3405269685039372
11
1.7299637007874016
21
-6.3480260236220474
0
LINE
8
BLACK
6
CONTINUOUS
10
1.7299637007874016
20
-6.3480260236220474
11
1.7262141732283465
21
-6.3517755905511812
0
LINE
8
BLACK
6
CONTINUOUS
10
1.7262141732283465
20
-6.3517755905511812
11
1.7187151181102363
21
-6.3555251181102363
0
LINE
8
BLACK
6
CONTINUOUS
10
1.7187151181102363
20
-6.3555251181102363
11
1.7112160236220473
21
-6.3555251181102363
0
LINE
8
BLACK
6
CONTINUOUS
10
1.7112160236220473
20
-6.3555251181102363
11
1.7037169685039371
21
-6.3517755905511812
0
LINE
8
BLACK
6
CONTINUOUS
10
1.7037169685039371
20
-6.3517755905511812
11
1.6999674409448819
21
-6.3480260236220474
0
LINE
8
BLACK
6
CONTINUOUS
10
1.6999674409448819
20
-6.3480260236220474
11
1.6962179133858268
21
-6.3405269685039372
0
LINE
8
BLACK
6
CONTINUOUS
10
1.6962179133858268
20
-6.3405269685039372
11
1.6924683858267715
21
-6.3255288582677167
0
LINE
8
BLACK
6
CONTINUOUS
10
1.6924683858267715
20
-6.3255288582677167
11
1.6924683858267715
21
-6.3067811811023624
0
LINE
8
BLACK
6
CONTINUOUS
10
1.6924683858267715
20
-6.3067811811023624
11
1.6962179133858268
21
-6.291783070866142
0
LINE
8
BLACK
6
CONTINUOUS
10
1.6962179133858268
20
-6.291783070866142
11
1.6999674409448819
21
-6.2842840157480317
0
LINE
8
BLACK
6
CONTINUOUS
10
1.6999674409448819
20
-6.2842840157480317
11
1.7037169685039371
21
-6.2805344881889766
0
LINE
8
BLACK
6
CONTINUOUS
10
1.7037169685039371
20
-6.2805344881889766
11
1.7112160236220473
21
-6.2767849606299215
0
LINE
8
BLACK
6
CONTINUOUS
10
1.7712085433070865
20
-6.3555251181102363
11
1.7712085433070865
21
-6.3030316535433073
0
LINE
8
BLACK
6
CONTINUOUS
10
1.7712085433070865
20
-6.3105307086614175
11
1.7749580708661417
21
-6.3067811811023624
0
LINE
8
BLACK
6
CONTINUOUS
10
1.7749580708661417
20
-6.3067811811023624
11
1.7824571259842519
21
-6.3030316535433073
0
LINE
8
BLACK
6
CONTINUOUS
10
1.7824571259842519
20
-6.3030316535433073
11
1.793705748031496
21
-6.3030316535433073
0
LINE
8
BLACK
6
CONTINUOUS
10
1.793705748031496
20
-6.3030316535433073
11
1.8012048031496062
21
-6.3067811811023624
0
LINE
8
BLACK
6
CONTINUOUS
10
1.8012048031496062
20
-6.3067811811023624
11
1.8049543307086613
21
-6.3142802755905514
0
LINE
8
BLACK
6
CONTINUOUS
10
1.8049543307086613
20
-6.3142802755905514
11
1.8049543307086613
21
-6.3555251181102363
0
LINE
8
BLACK
6
CONTINUOUS
10
1.8049543307086613
20
-6.3142802755905514
11
1.8087038582677164
21
-6.3067811811023624
0
LINE
8
BLACK
6
CONTINUOUS
10
1.8087038582677164
20
-6.3067811811023624
11
1.8162029133858266
21
-6.3030316535433073
0
LINE
8
BLACK
6
CONTINUOUS
10
1.8162029133858266
20
-6.3030316535433073
11
1.8274514960629922
21
-6.3030316535433073
0
LINE
8
BLACK
6
CONTINUOUS
10
1.8274514960629922
20
-6.3030316535433073
11
1.8349505905511811
21
-6.3067811811023624
0
LINE
8
BLACK
6
CONTINUOUS
10
1.8349505905511811
20
-6.3067811811023624
11
1.8387001181102363
21
-6.3142802755905514
0
LINE
8
BLACK
6
CONTINUOUS
10
1.8387001181102363
20
-6.3142802755905514
11
1.8387001181102363
21
-6.3555251181102363
0
LINE
8
BLACK
6
CONTINUOUS
10
1.8761954330708661
20
-6.3555251181102363
11
1.8761954330708661
21
-6.3030316535433073
0
LINE
8
BLACK
6
CONTINUOUS
10
1.8761954330708661
20
-6.3105307086614175
11
1.8799449606299212
21
-6.3067811811023624
0
LINE
8
BLACK
6
CONTINUOUS
10
1.8799449606299212
20
-6.3067811811023624
11
1.8874440157480314
21
-6.3030316535433073
0
LINE
8
BLACK
6
CONTINUOUS
10
1.8874440157480314
20
-6.3030316535433073
11
1.8986926377952755
21
-6.3030316535433073
0
LINE
8
BLACK
6
CONTINUOUS
10
1.8986926377952755
20
-6.3030316535433073
11
1.9061916929133857
21
-6.3067811811023624
0
LINE
8
BLACK
6
CONTINUOUS
10
1.9061916929133857
20
-6.3067811811023624
11
1.9099412204724409
21
-6.3142802755905514
0
LINE
8
BLACK
6
CONTINUOUS
10
1.9099412204724409
20
-6.3142802755905514
11
1.9099412204724409
21
-6.3555251181102363
0
LINE
8
BLACK
6
CONTINUOUS
10
1.9099412204724409
20
-6.3142802755905514
11
1.913690748031496
21
-6.3067811811023624
0
LINE
8
BLACK
6
CONTINUOUS
10
1.913690748031496
20
-6.3067811811023624
11
1.9211898031496062
21
-6.3030316535433073
0
LINE
8
BLACK
6
CONTINUOUS
10
1.9211898031496062
20
-6.3030316535433073
11
1.9324383858267715
21
-6.3030316535433073
0
LINE
8
BLACK
6
CONTINUOUS
10
1.9324383858267715
20
-6.3030316535433073
11
1.9399374803149605
21
-6.3067811811023624
0
LINE
8
BLACK
6
CONTINUOUS
10
1.9399374803149605
20
-6.3067811811023624
11
1.9436870078740156
21
-6.3142802755905514
0
LINE
8
BLACK
6
CONTINUOUS
10
1.9436870078740156
20
-6.3142802755905514
11
1.9436870078740156
21
-6.3555251181102363
0
LINE
8
BLACK
6
CONTINUOUS
10
2.0974177952755904
20
-6.2730354330708664
11
2.0299262598425196
21
-6.3742727559055119
0
LINE
8
BLACK
6
CONTINUOUS
10
2.198655157480315
20
-6.2767849606299215
11
2.206154251968504
21
-6.2767849606299215
0
LINE
8
BLACK
6
CONTINUOUS
10
2.206154251968504
20
-6.2767849606299215
11
2.2136533070866142
21
-6.2805344881889766
0
LINE
8
BLACK
6
CONTINUOUS
10
2.2136533070866142
20
-6.2805344881889766
11
2.2174028346456693
21
-6.2842840157480317
0
LINE
8
BLACK
6
CONTINUOUS
10
2.2174028346456693
20
-6.2842840157480317
11
2.2211523622047245
21
-6.291783070866142
0
LINE
8
BLACK
6
CONTINUOUS
10
2.2211523622047245
20
-6.291783070866142
11
2.2249018897637796
21
-6.3067811811023624
0
LINE
8
BLACK
6
CONTINUOUS
10
2.2249018897637796
20
-6.3067811811023624
11
2.2249018897637796
21
-6.3255288582677167
0
LINE
8
BLACK
6
CONTINUOUS
10
2.2249018897637796
20
-6.3255288582677167
11
2.2211523622047245
21
-6.3405269685039372
0
LINE
8
BLACK
6
CONTINUOUS
10
2.2211523622047245
20
-6.3405269685039372
11
2.2174028346456693
21
-6.3480260236220474
0
LINE
8
BLACK
6
CONTINUOUS
10
2.2174028346456693
20
-6.3480260236220474
11
2.2136533070866142
21
-6.3517755905511812
0
LINE
8
BLACK
6
CONTINUOUS
10
2.2136533070866142
20
-6.3517755905511812
11
2.206154251968504
21
-6.3555251181102363
0
LINE
8
BLACK
6
CONTINUOUS
10
2.206154251968504
20
-6.3555251181102363
11
2.198655157480315
21
-6.3555251181102363
0
LINE
8
BLACK
6
CONTINUOUS
10
2.198655157480315
20
-6.3555251181102363
11
2.1911561023622048
21
-6.3517755905511812
0
LINE
8
BLACK
6
CONTINUOUS
10
2.1911561023622048
20
-6.3517755905511812
11
2.1874065748031497
21
-6.3480260236220474
0
LINE
8
BLACK
6
CONTINUOUS
10
2.1874065748031497
20
-6.3480260236220474
11
2.1836570472440946
21
-6.3405269685039372
0
LINE
8
BLACK
6
CONTINUOUS
10
2.1836570472440946
20
-6.3405269685039372
11
2.1799075196850395
21
-6.3255288582677167
0
LINE
8
BLACK
6
CONTINUOUS
10
2.1799075196850395
20
-6.3255288582677167
11
2.1799075196850395
21
-6.3067811811023624
0
LINE
8
BLACK
6
CONTINUOUS
10
2.1799075196850395
20
-6.3067811811023624
11
2.1836570472440946
21
-6.291783070866142
0
LINE
8
BLACK
6
CONTINUOUS
10
2.1836570472440946
20
-6.291783070866142
11
2.1874065748031497
21
-6.2842840157480317
0
LINE
8
BLACK
6
CONTINUOUS
10
2.1874065748031497
20
-6.2842840157480317
11
2.1911561023622048
21
-6.2805344881889766
0
LINE
8
BLACK
6
CONTINUOUS
10
2.1911561023622048
20
-6.2805344881889766
11
2.198655157480315
21
-6.2767849606299215
0
LINE
8
BLACK
6
CONTINUOUS
10
2.2586476771653543
20
-6.3480260236220474
11
2.2623972047244094
21
-6.3517755905511812
0
LINE
8
BLACK
6
CONTINUOUS
10
2.2623972047244094
20
-6.3517755905511812
11
2.2586476771653543
21
-6.3555251181102363
0
LINE
8
BLACK
6
CONTINUOUS
10
2.2586476771653543
20
-6.3555251181102363
11
2.2548981496062992
21
-6.3517755905511812
0
LINE
8
BLACK
6
CONTINUOUS
10
2.2548981496062992
20
-6.3517755905511812
11
2.2586476771653543
21
-6.3480260236220474
0
LINE
8
BLACK
6
CONTINUOUS
10
2.2586476771653543
20
-6.3480260236220474
11
2.2586476771653543
21
-6.3555251181102363
0
LINE
8
BLACK
6
CONTINUOUS
10
2.3373878346456691
20
-6.3555251181102363
11
2.2923934645669291
21
-6.3555251181102363
0
LINE
8
BLACK
6
CONTINUOUS
10
2.3148906299212597
20
-6.3555251181102363
11
2.3148906299212597
21
-6.2767849606299215
0
LINE
8
BLACK
6
CONTINUOUS
10
2.3148906299212597
20
-6.2767849606299215
11
2.3073915748031495
21
-6.2880335433070869
0
LINE
8
BLACK
6
CONTINUOUS
10
2.3073915748031495
20
-6.2880335433070869
11
2.2998925196850393
21
-6.2955325984251971
0
LINE
8
BLACK
6
CONTINUOUS
10
2.2998925196850393
20
-6.2955325984251971
11
2.2923934645669291
21
-6.2992821259842522
0
LINE
8
BLACK
6
CONTINUOUS
10
2.3673840944881888
20
-6.2842840157480317
11
2.3711336220472439
21
-6.2805344881889766
0
LINE
8
BLACK
6
CONTINUOUS
10
2.3711336220472439
20
-6.2805344881889766
11
2.3786326771653541
21
-6.2767849606299215
0
LINE
8
BLACK
6
CONTINUOUS
10
2.3786326771653541
20
-6.2767849606299215
11
2.3973803543307084
21
-6.2767849606299215
0
LINE
8
BLACK
6
CONTINUOUS
10
2.3973803543307084
20
-6.2767849606299215
11
2.4048794094488191
21
-6.2805344881889766
0
LINE
8
BLACK
6
CONTINUOUS
10
2.4048794094488191
20
-6.2805344881889766
11
2.4086289370078742
21
-6.2842840157480317
0
LINE
8
BLACK
6
CONTINUOUS
10
2.4086289370078742
20
-6.2842840157480317
11
2.4123784645669293
21
-6.291783070866142
0
LINE
8
BLACK
6
CONTINUOUS
10
2.4123784645669293
20
-6.291783070866142
11
2.4123784645669293
21
-6.2992821259842522
0
LINE
8
BLACK
6
CONTINUOUS
10
2.4123784645669293
20
-6.2992821259842522
11
2.4086289370078742
21
-6.3105307086614175
0
LINE
8
BLACK
6
CONTINUOUS
10
2.4086289370078742
20
-6.3105307086614175
11
2.3636345669291337
21
-6.3555251181102363
0
LINE
8
BLACK
6
CONTINUOUS
10
2.3636345669291337
20
-6.3555251181102363
11
2.4123784645669293
21
-6.3555251181102363
0
LINE
8
BLACK
6
CONTINUOUS
10
2.4798700393700788
20
-6.2767849606299215
11
2.4648718897637796
21
-6.2767849606299215
0
LINE
8
BLACK
6
CONTINUOUS
10
2.4648718897637796
20
-6.2767849606299215
11
2.4573728346456694
21
-6.2805344881889766
0
LINE
8
BLACK
6
CONTINUOUS
10
2.4573728346456694
20
-6.2805344881889766
11
2.4536233070866142
21
-6.2842840157480317
0
LINE
8
BLACK
6
CONTINUOUS
10
2.4536233070866142
20
-6.2842840157480317
11
2.446124251968504
21
-6.2955325984251971
0
LINE
8
BLACK
6
CONTINUOUS
10
2.446124251968504
20
-6.2955325984251971
11
2.4423747244094489
21
-6.3105307086614175
0
LINE
8
BLACK
6
CONTINUOUS
10
2.4423747244094489
20
-6.3105307086614175
11
2.4423747244094489
21
-6.3405269685039372
0
LINE
8
BLACK
6
CONTINUOUS
10
2.4423747244094489
20
-6.3405269685039372
11
2.446124251968504
21
-6.3480260236220474
0
LINE
8
BLACK
6
CONTINUOUS
10
2.446124251968504
20
-6.3480260236220474
11
2.4498737795275591
21
-6.3517755905511812
0
LINE
8
BLACK
6
CONTINUOUS
10
2.4498737795275591
20
-6.3517755905511812
11
2.4573728346456694
21
-6.3555251181102363
0
LINE
8
BLACK
6
CONTINUOUS
10
2.4573728346456694
20
-6.3555251181102363
11
2.4723709842519686
21
-6.3555251181102363
0
LINE
8
BLACK
6
CONTINUOUS
10
2.4723709842519686
20
-6.3555251181102363
11
2.4798700393700788
21
-6.3517755905511812
0
LINE
8
BLACK
6
CONTINUOUS
10
2.4798700393700788
20
-6.3517755905511812
11
2.4836195669291339
21
-6.3480260236220474
0
LINE
8
BLACK
6
CONTINUOUS
10
2.4836195669291339
20
-6.3480260236220474
11
2.487369094488189
21
-6.3405269685039372
0
LINE
8
BLACK
6
CONTINUOUS
10
2.487369094488189
20
-6.3405269685039372
11
2.487369094488189
21
-6.3217793307086616
0
LINE
8
BLACK
6
CONTINUOUS
10
2.487369094488189
20
-6.3217793307086616
11
2.4836195669291339
21
-6.3142802755905514
0
LINE
8
BLACK
6
CONTINUOUS
10
2.4836195669291339
20
-6.3142802755905514
11
2.4798700393700788
21
-6.3105307086614175
0
LINE
8
BLACK
6
CONTINUOUS
10
2.4798700393700788
20
-6.3105307086614175
11
2.4723709842519686
21
-6.3067811811023624
0
LINE
8
BLACK
6
CONTINUOUS
10
2.4723709842519686
20
-6.3067811811023624
11
2.4573728346456694
21
-6.3067811811023624
0
LINE
8
BLACK
6
CONTINUOUS
10
2.4573728346456694
20
-6.3067811811023624
11
2.4498737795275591
21
-6.3105307086614175
0
LINE
8
BLACK
6
CONTINUOUS
10
2.4498737795275591
20
-6.3105307086614175
11
2.446124251968504
21
-6.3142802755905514
0
LINE
8
BLACK
6
CONTINUOUS
10
2.446124251968504
20
-6.3142802755905514
11
2.4423747244094489
21
-6.3217793307086616
0
LINE
8
BLACK
6
CONTINUOUS
10
2.5361129921259842
20
-6.2767849606299215
11
2.5436120866141732
21
-6.2767849606299215
0
LINE
8
BLACK
6
CONTINUOUS
10
2.5436120866141732
20
-6.2767849606299215
11
2.5511111417322834
21
-6.2805344881889766
0
LINE
8
BLACK
6
CONTINUOUS
10
2.5511111417322834
20
-6.2805344881889766
11
2.5548606692913385
21
-6.2842840157480317
0
LINE
8
BLACK
6
CONTINUOUS
10
2.5548606692913385
20
-6.2842840157480317
11
2.5586101968503936
21
-6.291783070866142
0
LINE
8
BLACK
6
CONTINUOUS
10
2.5586101968503936
20
-6.291783070866142
11
2.5623597244094487
21
-6.3067811811023624
0
LINE
8
BLACK
6
CONTINUOUS
10
2.5623597244094487
20
-6.3067811811023624
11
2.5623597244094487
21
-6.3255288582677167
0
LINE
8
BLACK
6
CONTINUOUS
10
2.5623597244094487
20
-6.3255288582677167
11
2.5586101968503936
21
-6.3405269685039372
0
LINE
8
BLACK
6
CONTINUOUS
10
2.5586101968503936
20
-6.3405269685039372
11
2.5548606692913385
21
-6.3480260236220474
0
LINE
8
BLACK
6
CONTINUOUS
10
2.5548606692913385
20
-6.3480260236220474
11
2.5511111417322834
21
-6.3517755905511812
0
LINE
8
BLACK
6
CONTINUOUS
10
2.5511111417322834
20
-6.3517755905511812
11
2.5436120866141732
21
-6.3555251181102363
0
LINE
8
BLACK
6
CONTINUOUS
10
2.5436120866141732
20
-6.3555251181102363
11
2.5361129921259842
21
-6.3555251181102363
0
LINE
8
BLACK
6
CONTINUOUS
10
2.5361129921259842
20
-6.3555251181102363
11
2.528613937007874
21
-6.3517755905511812
0
LINE
8
BLACK
6
CONTINUOUS
10
2.528613937007874
20
-6.3517755905511812
11
2.5248644094488188
21
-6.3480260236220474
0
LINE
8
BLACK
6
CONTINUOUS
10
2.5248644094488188
20
-6.3480260236220474
11
2.5211148818897637
21
-6.3405269685039372
0
LINE
8
BLACK
6
CONTINUOUS
10
2.5211148818897637
20
-6.3405269685039372
11
2.5173653543307086
21
-6.3255288582677167
0
LINE
8
BLACK
6
CONTINUOUS
10
2.5173653543307086
20
-6.3255288582677167
11
2.5173653543307086
21
-6.3067811811023624
0
LINE
8
BLACK
6
CONTINUOUS
10
2.5173653543307086
20
-6.3067811811023624
11
2.5211148818897637
21
-6.291783070866142
0
LINE
8
BLACK
6
CONTINUOUS
10
2.5211148818897637
20
-6.291783070866142
11
2.5248644094488188
21
-6.2842840157480317
0
LINE
8
BLACK
6
CONTINUOUS
10
2.5248644094488188
20
-6.2842840157480317
11
2.528613937007874
21
-6.2805344881889766
0
LINE
8
BLACK
6
CONTINUOUS
10
2.528613937007874
20
-6.2805344881889766
11
2.5361129921259842
21
-6.2767849606299215
0
LINE
8
BLACK
6
CONTINUOUS
10
2.5923559842519683
20
-6.2767849606299215
11
2.5923559842519683
21
-6.291783070866142
0
LINE
8
BLACK
6
CONTINUOUS
10
2.622352244094488
20
-6.2767849606299215
11
2.622352244094488
21
-6.291783070866142
0
LINE
8
BLACK
6
CONTINUOUS
10
2.7385877559055118
20
-6.3855213385826772
11
2.734838188976378
21
-6.3817718110236221
0
LINE
8
BLACK
6
CONTINUOUS
10
2.734838188976378
20
-6.3817718110236221
11
2.7273391338582678
21
-6.3705232283464568
0
LINE
8
BLACK
6
CONTINUOUS
10
2.7273391338582678
20
-6.3705232283464568
11
2.7235896062992127
21
-6.3630241732283466
0
LINE
8
BLACK
6
CONTINUOUS
10
2.7235896062992127
20
-6.3630241732283466
11
2.7198400787401575
21
-6.3517755905511812
0
LINE
8
BLACK
6
CONTINUOUS
10
2.7198400787401575
20
-6.3517755905511812
11
2.7160905511811024
21
-6.3330279133858269
0
LINE
8
BLACK
6
CONTINUOUS
10
2.7160905511811024
20
-6.3330279133858269
11
2.7160905511811024
21
-6.3180298031496065
0
LINE
8
BLACK
6
CONTINUOUS
10
2.7160905511811024
20
-6.3180298031496065
11
2.7198400787401575
21
-6.2992821259842522
0
LINE
8
BLACK
6
CONTINUOUS
10
2.7198400787401575
20
-6.2992821259842522
11
2.7235896062992127
21
-6.2880335433070869
0
LINE
8
BLACK
6
CONTINUOUS
10
2.7235896062992127
20
-6.2880335433070869
11
2.7273391338582678
21
-6.2805344881889766
0
LINE
8
BLACK
6
CONTINUOUS
10
2.7273391338582678
20
-6.2805344881889766
11
2.734838188976378
21
-6.2692858661417326
0
LINE
8
BLACK
6
CONTINUOUS
10
2.734838188976378
20
-6.2692858661417326
11
2.7385877559055118
21
-6.2655363385826774
0
LINE
8
BLACK
6
CONTINUOUS
10
2.8023297637795275
20
-6.3030316535433073
11
2.8023297637795275
21
-6.3555251181102363
0
LINE
8
BLACK
6
CONTINUOUS
10
2.7835820866141732
20
-6.2730354330708664
11
2.7648344488188976
21
-6.3292783858267718
0
LINE
8
BLACK
6
CONTINUOUS
10
2.7648344488188976
20
-6.3292783858267718
11
2.8135783464566928
21
-6.3292783858267718
0
LINE
8
BLACK
6
CONTINUOUS
10
2.9035671259842517
20
-6.3555251181102363
11
2.9035671259842517
21
-6.2767849606299215
0
LINE
8
BLACK
6
CONTINUOUS
10
2.9373129133858269
20
-6.3555251181102363
11
2.9373129133858269
21
-6.3142802755905514
0
LINE
8
BLACK
6
CONTINUOUS
10
2.9373129133858269
20
-6.3142802755905514
11
2.9335633858267718
21
-6.3067811811023624
0
LINE
8
BLACK
6
CONTINUOUS
10
2.9335633858267718
20
-6.3067811811023624
11
2.9260643307086616
21
-6.3030316535433073
0
LINE
8
BLACK
6
CONTINUOUS
10
2.9260643307086616
20
-6.3030316535433073
11
2.914815708661417
21
-6.3030316535433073
0
LINE
8
BLACK
6
CONTINUOUS
10
2.914815708661417
20
-6.3030316535433073
11
2.9073166535433068
21
-6.3067811811023624
0
LINE
8
BLACK
6
CONTINUOUS
10
2.9073166535433068
20
-6.3067811811023624
11
2.9035671259842517
21
-6.3105307086614175
0
LINE
8
BLACK
6
CONTINUOUS
10
2.9860568110236221
20
-6.3555251181102363
11
2.9785577559055119
21
-6.3517755905511812
0
LINE
8
BLACK
6
CONTINUOUS
10
2.9785577559055119
20
-6.3517755905511812
11
2.9748082283464568
21
-6.3480260236220474
0
LINE
8
BLACK
6
CONTINUOUS
10
2.9748082283464568
20
-6.3480260236220474
11
2.9710587007874016
21
-6.3405269685039372
0
LINE
8
BLACK
6
CONTINUOUS
10
2.9710587007874016
20
-6.3405269685039372
11
2.9710587007874016
21
-6.3180298031496065
0
LINE
8
BLACK
6
CONTINUOUS
10
2.9710587007874016
20
-6.3180298031496065
11
2.9748082283464568
21
-6.3105307086614175
0
LINE
8
BLACK
6
CONTINUOUS
10
2.9748082283464568
20
-6.3105307086614175
11
2.9785577559055119
21
-6.3067811811023624
0
LINE
8
BLACK
6
CONTINUOUS
10
2.9785577559055119
20
-6.3067811811023624
11
2.9860568110236221
21
-6.3030316535433073
0
LINE
8
BLACK
6
CONTINUOUS
10
2.9860568110236221
20
-6.3030316535433073
11
2.9973054330708662
21
-6.3030316535433073
0
LINE
8
BLACK
6
CONTINUOUS
10
2.9973054330708662
20
-6.3030316535433073
11
3.0048044881889764
21
-6.3067811811023624
0
LINE
8
BLACK
6
CONTINUOUS
10
3.0048044881889764
20
-6.3067811811023624
11
3.0085540157480315
21
-6.3105307086614175
0
LINE
8
BLACK
6
CONTINUOUS
10
3.0085540157480315
20
-6.3105307086614175
11
3.0123035433070866
21
-6.3180298031496065
0
LINE
8
BLACK
6
CONTINUOUS
10
3.0123035433070866
20
-6.3180298031496065
11
3.0123035433070866
21
-6.3405269685039372
0
LINE
8
BLACK
6
CONTINUOUS
10
3.0123035433070866
20
-6.3405269685039372
11
3.0085540157480315
21
-6.3480260236220474
0
LINE
8
BLACK
6
CONTINUOUS
10
3.0085540157480315
20
-6.3480260236220474
11
3.0048044881889764
21
-6.3517755905511812
0
LINE
8
BLACK
6
CONTINUOUS
10
3.0048044881889764
20
-6.3517755905511812
11
2.9973054330708662
21
-6.3555251181102363
0
LINE
8
BLACK
6
CONTINUOUS
10
2.9973054330708662
20
-6.3555251181102363
11
2.9860568110236221
21
-6.3555251181102363
0
LINE
8
BLACK
6
CONTINUOUS
10
3.0572979133858267
20
-6.3555251181102363
11
3.0497988582677165
21
-6.3517755905511812
0
LINE
8
BLACK
6
CONTINUOUS
10
3.0497988582677165
20
-6.3517755905511812
11
3.0460493307086614
21
-6.3442764960629923
0
LINE
8
BLACK
6
CONTINUOUS
10
3.0460493307086614
20
-6.3442764960629923
11
3.0460493307086614
21
-6.2767849606299215
0
LINE
8
BLACK
6
CONTINUOUS
10
3.117290433070866
20
-6.3517755905511812
11
3.1097913779527557
21
-6.3555251181102363
0
LINE
8
BLACK
6
CONTINUOUS
10
3.1097913779527557
20
-6.3555251181102363
11
3.0947932283464565
21
-6.3555251181102363
0
LINE
8
BLACK
6
CONTINUOUS
10
3.0947932283464565
20
-6.3555251181102363
11
3.0872941732283463
21
-6.3517755905511812
0
LINE
8
BLACK
6
CONTINUOUS
10
3.0872941732283463
20
-6.3517755905511812
11
3.0835446456692912
21
-6.3442764960629923
0
LINE
8
BLACK
6
CONTINUOUS
10
3.0835446456692912
20
-6.3442764960629923
11
3.0835446456692912
21
-6.3142802755905514
0
LINE
8
BLACK
6
CONTINUOUS
10
3.0835446456692912
20
-6.3142802755905514
11
3.0872941732283463
21
-6.3067811811023624
0
LINE
8
BLACK
6
CONTINUOUS
10
3.0872941732283463
20
-6.3067811811023624
11
3.0947932283464565
21
-6.3030316535433073
0
LINE
8
BLACK
6
CONTINUOUS
10
3.0947932283464565
20
-6.3030316535433073
11
3.1097913779527557
21
-6.3030316535433073
0
LINE
8
BLACK
6
CONTINUOUS
10
3.1097913779527557
20
-6.3030316535433073
11
3.117290433070866
21
-6.3067811811023624
0
LINE
8
BLACK
6
CONTINUOUS
10
3.117290433070866
20
-6.3067811811023624
11
3.1210399606299211
21
-6.3142802755905514
0
LINE
8
BLACK
6
CONTINUOUS
10
3.1210399606299211
20
-6.3142802755905514
11
3.1210399606299211
21
-6.3217793307086616
0
LINE
8
BLACK
6
CONTINUOUS
10
3.1210399606299211
20
-6.3217793307086616
11
3.0835446456692912
21
-6.3292783858267718
0
LINE
8
BLACK
6
CONTINUOUS
10
3.1510362204724407
20
-6.3517755905511812
11
3.1585352755905509
21
-6.3555251181102363
0
LINE
8
BLACK
6
CONTINUOUS
10
3.1585352755905509
20
-6.3555251181102363
11
3.1735333858267718
21
-6.3555251181102363
0
LINE
8
BLACK
6
CONTINUOUS
10
3.1735333858267718
20
-6.3555251181102363
11
3.1810324803149608
21
-6.3517755905511812
0
LINE
8
BLACK
6
CONTINUOUS
10
3.1810324803149608
20
-6.3517755905511812
11
3.1847820078740159
21
-6.3442764960629923
0
LINE
8
BLACK
6
CONTINUOUS
10
3.1847820078740159
20
-6.3442764960629923
11
3.1847820078740159
21
-6.3405269685039372
0
LINE
8
BLACK
6
CONTINUOUS
10
3.1847820078740159
20
-6.3405269685039372
11
3.1810324803149608
21
-6.3330279133858269
0
LINE
8
BLACK
6
CONTINUOUS
10
3.1810324803149608
20
-6.3330279133858269
11
3.1735333858267718
21
-6.3292783858267718
0
LINE
8
BLACK
6
CONTINUOUS
10
3.1735333858267718
20
-6.3292783858267718
11
3.162284803149606
21
-6.3292783858267718
0
LINE
8
BLACK
6
CONTINUOUS
10
3.162284803149606
20
-6.3292783858267718
11
3.1547857480314958
21
-6.3255288582677167
0
LINE
8
BLACK
6
CONTINUOUS
10
3.1547857480314958
20
-6.3255288582677167
11
3.1510362204724407
21
-6.3180298031496065
0
LINE
8
BLACK
6
CONTINUOUS
10
3.1510362204724407
20
-6.3180298031496065
11
3.1510362204724407
21
-6.3142802755905514
0
LINE
8
BLACK
6
CONTINUOUS
10
3.1510362204724407
20
-6.3142802755905514
11
3.1547857480314958
21
-6.3067811811023624
0
LINE
8
BLACK
6
CONTINUOUS
10
3.1547857480314958
20
-6.3067811811023624
11
3.162284803149606
21
-6.3030316535433073
0
LINE
8
BLACK
6
CONTINUOUS
10
3.162284803149606
20
-6.3030316535433073
11
3.1735333858267718
21
-6.3030316535433073
0
LINE
8
BLACK
6
CONTINUOUS
10
3.1735333858267718
20
-6.3030316535433073
11
3.1810324803149608
21
-6.3067811811023624
0
LINE
8
BLACK
6
CONTINUOUS
10
3.2110287401574804
20
-6.3855213385826772
11
3.2147782677165355
21
-6.3817718110236221
0
LINE
8
BLACK
6
CONTINUOUS
10
3.2147782677165355
20
-6.3817718110236221
11
3.2222773228346457
21
-6.3705232283464568
0
LINE
8
BLACK
6
CONTINUOUS
10
3.2222773228346457
20
-6.3705232283464568
11
3.2260268503937009
21
-6.3630241732283466
0
LINE
8
BLACK
6
CONTINUOUS
10
3.2260268503937009
20
-6.3630241732283466
11
3.229776377952756
21
-6.3517755905511812
0
LINE
8
BLACK
6
CONTINUOUS
10
3.229776377952756
20
-6.3517755905511812
11
3.2335259055118111
21
-6.3330279133858269
0
LINE
8
BLACK
6
CONTINUOUS
10
3.2335259055118111
20
-6.3330279133858269
11
3.2335259055118111
21
-6.3180298031496065
0
LINE
8
BLACK
6
CONTINUOUS
10
3.2335259055118111
20
-6.3180298031496065
11
3.229776377952756
21
-6.2992821259842522
0
LINE
8
BLACK
6
CONTINUOUS
10
3.229776377952756
20
-6.2992821259842522
11
3.2260268503937009
21
-6.2880335433070869
0
LINE
8
BLACK
6
CONTINUOUS
10
3.2260268503937009
20
-6.2880335433070869
11
3.2222773228346457
21
-6.2805344881889766
0
LINE
8
BLACK
6
CONTINUOUS
10
3.2222773228346457
20
-6.2805344881889766
11
3.2147782677165355
21
-6.2692858661417326
0
LINE
8
BLACK
6
CONTINUOUS
10
3.2147782677165355
20
-6.2692858661417326
11
3.2110287401574804
21
-6.2655363385826774
0
LINE
8
BLACK
6
CONTINUOUS
10
3.3535109448818896
20
-6.3855213385826772
11
3.3497613779527557
21
-6.3817718110236221
0
LINE
8
BLACK
6
CONTINUOUS
10
3.3497613779527557
20
-6.3817718110236221
11
3.3422623228346455
21
-6.3705232283464568
0
LINE
8
BLACK
6
CONTINUOUS
10
3.3422623228346455
20
-6.3705232283464568
11
3.3385127952755904
21
-6.3630241732283466
0
LINE
8
BLACK
6
CONTINUOUS
10
3.3385127952755904
20
-6.3630241732283466
11
3.3347632677165353
21
-6.3517755905511812
0
LINE
8
BLACK
6
CONTINUOUS
10
3.3347632677165353
20
-6.3517755905511812
11
3.3310137401574802
21
-6.3330279133858269
0
LINE
8
BLACK
6
CONTINUOUS
10
3.3310137401574802
20
-6.3330279133858269
11
3.3310137401574802
21
-6.3180298031496065
0
LINE
8
BLACK
6
CONTINUOUS
10
3.3310137401574802
20
-6.3180298031496065
11
3.3347632677165353
21
-6.2992821259842522
0
LINE
8
BLACK
6
CONTINUOUS
10
3.3347632677165353
20
-6.2992821259842522
11
3.3385127952755904
21
-6.2880335433070869
0
LINE
8
BLACK
6
CONTINUOUS
10
3.3385127952755904
20
-6.2880335433070869
11
3.3422623228346455
21
-6.2805344881889766
0
LINE
8
BLACK
6
CONTINUOUS
10
3.3422623228346455
20
-6.2805344881889766
11
3.3497613779527557
21
-6.2692858661417326
0
LINE
8
BLACK
6
CONTINUOUS
10
3.3497613779527557
20
-6.2692858661417326
11
3.3535109448818896
21
-6.2655363385826774
0
LINE
8
BLACK
6
CONTINUOUS
10
3.3835071653543305
20
-6.3030316535433073
11
3.3835071653543305
21
-6.3555251181102363
0
LINE
8
BLACK
6
CONTINUOUS
10
3.3835071653543305
20
-6.3105307086614175
11
3.3872566929133856
21
-6.3067811811023624
0
LINE
8
BLACK
6
CONTINUOUS
10
3.3872566929133856
20
-6.3067811811023624
11
3.3947557480314958
21
-6.3030316535433073
0
LINE
8
BLACK
6
CONTINUOUS
10
3.3947557480314958
20
-6.3030316535433073
11
3.4060043700787399
21
-6.3030316535433073
0
LINE
8
BLACK
6
CONTINUOUS
10
3.4060043700787399
20
-6.3030316535433073
11
3.4135034251968501
21
-6.3067811811023624
0
LINE
8
BLACK
6
CONTINUOUS
10
3.4135034251968501
20
-6.3067811811023624
11
3.4172529527559052
21
-6.3142802755905514
0
LINE
8
BLACK
6
CONTINUOUS
10
3.4172529527559052
20
-6.3142802755905514
11
3.4172529527559052
21
-6.3555251181102363
0
LINE
8
BLACK
6
CONTINUOUS
10
3.4659968503937009
20
-6.3555251181102363
11
3.4584977952755906
21
-6.3517755905511812
0
LINE
8
BLACK
6
CONTINUOUS
10
3.4584977952755906
20
-6.3517755905511812
11
3.4547482677165355
21
-6.3480260236220474
0
LINE
8
BLACK
6
CONTINUOUS
10
3.4547482677165355
20
-6.3480260236220474
11
3.4509987401574804
21
-6.3405269685039372
0
LINE
8
BLACK
6
CONTINUOUS
10
3.4509987401574804
20
-6.3405269685039372
11
3.4509987401574804
21
-6.3180298031496065
0
LINE
8
BLACK
6
CONTINUOUS
10
3.4509987401574804
20
-6.3180298031496065
11
3.4547482677165355
21
-6.3105307086614175
0
LINE
8
BLACK
6
CONTINUOUS
10
3.4547482677165355
20
-6.3105307086614175
11
3.4584977952755906
21
-6.3067811811023624
0
LINE
8
BLACK
6
CONTINUOUS
10
3.4584977952755906
20
-6.3067811811023624
11
3.4659968503937009
21
-6.3030316535433073
0
LINE
8
BLACK
6
CONTINUOUS
10
3.4659968503937009
20
-6.3030316535433073
11
3.477245472440945
21
-6.3030316535433073
0
LINE
8
BLACK
6
CONTINUOUS
10
3.477245472440945
20
-6.3030316535433073
11
3.4847445275590552
21
-6.3067811811023624
0
LINE
8
BLACK
6
CONTINUOUS
10
3.4847445275590552
20
-6.3067811811023624
11
3.4884940551181103
21
-6.3105307086614175
0
LINE
8
BLACK
6
CONTINUOUS
10
3.4884940551181103
20
-6.3105307086614175
11
3.4922435826771654
21
-6.3180298031496065
0
LINE
8
BLACK
6
CONTINUOUS
10
3.4922435826771654
20
-6.3180298031496065
11
3.4922435826771654
21
-6.3405269685039372
0
LINE
8
BLACK
6
CONTINUOUS
10
3.4922435826771654
20
-6.3405269685039372
11
3.4884940551181103
21
-6.3480260236220474
0
LINE
8
BLACK
6
CONTINUOUS
10
3.4884940551181103
20
-6.3480260236220474
11
3.4847445275590552
21
-6.3517755905511812
0
LINE
8
BLACK
6
CONTINUOUS
10
3.4847445275590552
20
-6.3517755905511812
11
3.477245472440945
21
-6.3555251181102363
0
LINE
8
BLACK
6
CONTINUOUS
10
3.477245472440945
20
-6.3555251181102363
11
3.4659968503937009
21
-6.3555251181102363
0
LINE
8
BLACK
6
CONTINUOUS
10
3.5147407874015748
20
-6.3030316535433073
11
3.5447370078740157
21
-6.3030316535433073
0
LINE
8
BLACK
6
CONTINUOUS
10
3.5259893700787401
20
-6.2767849606299215
11
3.5259893700787401
21
-6.3442764960629923
0
LINE
8
BLACK
6
CONTINUOUS
10
3.5259893700787401
20
-6.3442764960629923
11
3.5297388976377952
21
-6.3517755905511812
0
LINE
8
BLACK
6
CONTINUOUS
10
3.5297388976377952
20
-6.3517755905511812
11
3.5372379527559055
21
-6.3555251181102363
0
LINE
8
BLACK
6
CONTINUOUS
10
3.5372379527559055
20
-6.3555251181102363
11
3.5447370078740157
21
-6.3555251181102363
0
LINE
8
BLACK
6
CONTINUOUS
10
3.6309762598425195
20
-6.3030316535433073
11
3.6309762598425195
21
-6.3817718110236221
0
LINE
8
BLACK
6
CONTINUOUS
10
3.6309762598425195
20
-6.3067811811023624
11
3.6384753149606297
21
-6.3030316535433073
0
LINE
8
BLACK
6
CONTINUOUS
10
3.6384753149606297
20
-6.3030316535433073
11
3.6534734645669289
21
-6.3030316535433073
0
LINE
8
BLACK
6
CONTINUOUS
10
3.6534734645669289
20
-6.3030316535433073
11
3.6609725196850391
21
-6.3067811811023624
0
LINE
8
BLACK
6
CONTINUOUS
10
3.6609725196850391
20
-6.3067811811023624
11
3.6647220472440942
21
-6.3105307086614175
0
LINE
8
BLACK
6
CONTINUOUS
10
3.6647220472440942
20
-6.3105307086614175
11
3.6684715748031493
21
-6.3180298031496065
0
LINE
8
BLACK
6
CONTINUOUS
10
3.6684715748031493
20
-6.3180298031496065
11
3.6684715748031493
21
-6.3405269685039372
0
LINE
8
BLACK
6
CONTINUOUS
10
3.6684715748031493
20
-6.3405269685039372
11
3.6647220472440942
21
-6.3480260236220474
0
LINE
8
BLACK
6
CONTINUOUS
10
3.6647220472440942
20
-6.3480260236220474
11
3.6609725196850391
21
-6.3517755905511812
0
LINE
8
BLACK
6
CONTINUOUS
10
3.6609725196850391
20
-6.3517755905511812
11
3.6534734645669289
21
-6.3555251181102363
0
LINE
8
BLACK
6
CONTINUOUS
10
3.6534734645669289
20
-6.3555251181102363
11
3.6384753149606297
21
-6.3555251181102363
0
LINE
8
BLACK
6
CONTINUOUS
10
3.6384753149606297
20
-6.3555251181102363
11
3.6309762598425195
21
-6.3517755905511812
0
LINE
8
BLACK
6
CONTINUOUS
10
3.7134659448818899
20
-6.3555251181102363
11
3.7059668897637796
21
-6.3517755905511812
0
LINE
8
BLACK
6
CONTINUOUS
10
3.7059668897637796
20
-6.3517755905511812
11
3.7022173622047245
21
-6.3442764960629923
0
LINE
8
BLACK
6
CONTINUOUS
10
3.7022173622047245
20
-6.3442764960629923
11
3.7022173622047245
21
-6.2767849606299215
0
LINE
8
BLACK
6
CONTINUOUS
10
3.7772079921259842
20
-6.3555251181102363
11
3.7772079921259842
21
-6.3142802755905514
0
LINE
8
BLACK
6
CONTINUOUS
10
3.7772079921259842
20
-6.3142802755905514
11
3.7734584645669291
21
-6.3067811811023624
0
LINE
8
BLACK
6
CONTINUOUS
10
3.7734584645669291
20
-6.3067811811023624
11
3.7659594094488189
21
-6.3030316535433073
0
LINE
8
BLACK
6
CONTINUOUS
10
3.7659594094488189
20
-6.3030316535433073
11
3.7509612598425197
21
-6.3030316535433073
0
LINE
8
BLACK
6
CONTINUOUS
10
3.7509612598425197
20
-6.3030316535433073
11
3.7434622047244095
21
-6.3067811811023624
0
LINE
8
BLACK
6
CONTINUOUS
10
3.7772079921259842
20
-6.3517755905511812
11
3.769708937007874
21
-6.3555251181102363
0
LINE
8
BLACK
6
CONTINUOUS
10
3.769708937007874
20
-6.3555251181102363
11
3.7509612598425197
21
-6.3555251181102363
0
LINE
8
BLACK
6
CONTINUOUS
10
3.7509612598425197
20
-6.3555251181102363
11
3.7434622047244095
21
-6.3517755905511812
0
LINE
8
BLACK
6
CONTINUOUS
10
3.7434622047244095
20
-6.3517755905511812
11
3.7397126771653544
21
-6.3442764960629923
0
LINE
8
BLACK
6
CONTINUOUS
10
3.7397126771653544
20
-6.3442764960629923
11
3.7397126771653544
21
-6.336777440944882
0
LINE
8
BLACK
6
CONTINUOUS
10
3.7397126771653544
20
-6.336777440944882
11
3.7434622047244095
21
-6.3292783858267718
0
LINE
8
BLACK
6
CONTINUOUS
10
3.7434622047244095
20
-6.3292783858267718
11
3.7509612598425197
21
-6.3255288582677167
0
LINE
8
BLACK
6
CONTINUOUS
10
3.7509612598425197
20
-6.3255288582677167
11
3.769708937007874
21
-6.3255288582677167
0
LINE
8
BLACK
6
CONTINUOUS
10
3.769708937007874
20
-6.3255288582677167
11
3.7772079921259842
21
-6.3217793307086616
0
LINE
8
BLACK
6
CONTINUOUS
10
3.8034547244094488
20
-6.3030316535433073
11
3.8334509448818896
21
-6.3030316535433073
0
LINE
8
BLACK
6
CONTINUOUS
10
3.8147033070866141
20
-6.2767849606299215
11
3.8147033070866141
21
-6.3442764960629923
0
LINE
8
BLACK
6
CONTINUOUS
10
3.8147033070866141
20
-6.3442764960629923
11
3.8184528346456692
21
-6.3517755905511812
0
LINE
8
BLACK
6
CONTINUOUS
10
3.8184528346456692
20
-6.3517755905511812
11
3.8259518897637794
21
-6.3555251181102363
0
LINE
8
BLACK
6
CONTINUOUS
10
3.8259518897637794
20
-6.3555251181102363
11
3.8334509448818896
21
-6.3555251181102363
0
LINE
8
BLACK
6
CONTINUOUS
10
3.8896939370078738
20
-6.3517755905511812
11
3.8821948818897636
21
-6.3555251181102363
0
LINE
8
BLACK
6
CONTINUOUS
10
3.8821948818897636
20
-6.3555251181102363
11
3.8671967322834644
21
-6.3555251181102363
0
LINE
8
BLACK
6
CONTINUOUS
10
3.8671967322834644
20
-6.3555251181102363
11
3.8596976771653542
21
-6.3517755905511812
0
LINE
8
BLACK
6
CONTINUOUS
10
3.8596976771653542
20
-6.3517755905511812
11
3.8559481496062991
21
-6.3442764960629923
0
LINE
8
BLACK
6
CONTINUOUS
10
3.8559481496062991
20
-6.3442764960629923
11
3.8559481496062991
21
-6.3142802755905514
0
LINE
8
BLACK
6
CONTINUOUS
10
3.8559481496062991
20
-6.3142802755905514
11
3.8596976771653542
21
-6.3067811811023624
0
LINE
8
BLACK
6
CONTINUOUS
10
3.8596976771653542
20
-6.3067811811023624
11
3.8671967322834644
21
-6.3030316535433073
0
LINE
8
BLACK
6
CONTINUOUS
10
3.8671967322834644
20
-6.3030316535433073
11
3.8821948818897636
21
-6.3030316535433073
0
LINE
8
BLACK
6
CONTINUOUS
10
3.8821948818897636
20
-6.3030316535433073
11
3.8896939370078738
21
-6.3067811811023624
0
LINE
8
BLACK
6
CONTINUOUS
10
3.8896939370078738
20
-6.3067811811023624
11
3.8934434645669289
21
-6.3142802755905514
0
LINE
8
BLACK
6
CONTINUOUS
10
3.8934434645669289
20
-6.3142802755905514
11
3.8934434645669289
21
-6.3217793307086616
0
LINE
8
BLACK
6
CONTINUOUS
10
3.8934434645669289
20
-6.3217793307086616
11
3.8559481496062991
21
-6.3292783858267718
0
LINE
8
BLACK
6
CONTINUOUS
10
3.9609350393700788
20
-6.3555251181102363
11
3.9609350393700788
21
-6.2767849606299215
0
LINE
8
BLACK
6
CONTINUOUS
10
3.9609350393700788
20
-6.3517755905511812
11
3.9534359842519686
21
-6.3555251181102363
0
LINE
8
BLACK
6
CONTINUOUS
10
3.9534359842519686
20
-6.3555251181102363
11
3.938437834645669
21
-6.3555251181102363
0
LINE
8
BLACK
6
CONTINUOUS
10
3.938437834645669
20
-6.3555251181102363
11
3.9309387795275588
21
-6.3517755905511812
0
LINE
8
BLACK
6
CONTINUOUS
10
3.9309387795275588
20
-6.3517755905511812
11
3.9271892519685037
21
-6.3480260236220474
0
LINE
8
BLACK
6
CONTINUOUS
10
3.9271892519685037
20
-6.3480260236220474
11
3.9234397244094485
21
-6.3405269685039372
0
LINE
8
BLACK
6
CONTINUOUS
10
3.9234397244094485
20
-6.3405269685039372
11
3.9234397244094485
21
-6.3180298031496065
0
LINE
8
BLACK
6
CONTINUOUS
10
3.9234397244094485
20
-6.3180298031496065
11
3.9271892519685037
21
-6.3105307086614175
0
LINE
8
BLACK
6
CONTINUOUS
10
3.9271892519685037
20
-6.3105307086614175
11
3.9309387795275588
21
-6.3067811811023624
0
LINE
8
BLACK
6
CONTINUOUS
10
3.9309387795275588
20
-6.3067811811023624
11
3.938437834645669
21
-6.3030316535433073
0
LINE
8
BLACK
6
CONTINUOUS
10
3.938437834645669
20
-6.3030316535433073
11
3.9534359842519686
21
-6.3030316535433073
0
LINE
8
BLACK
6
CONTINUOUS
10
3.9534359842519686
20
-6.3030316535433073
11
3.9609350393700788
21
-6.3067811811023624
0
LINE
8
BLACK
6
CONTINUOUS
10
3.9909312992125985
20
-6.3855213385826772
11
3.9946808267716536
21
-6.3817718110236221
0
LINE
8
BLACK
6
CONTINUOUS
10
3.9946808267716536
20
-6.3817718110236221
11
4.0021798818897638
21
-6.3705232283464568
0
LINE
8
BLACK
6
CONTINUOUS
10
4.0021798818897638
20
-6.3705232283464568
11
4.0059294094488189
21
-6.3630241732283466
0
LINE
8
BLACK
6
CONTINUOUS
10
4.0059294094488189
20
-6.3630241732283466
11
4.009678937007874
21
-6.3517755905511812
0
LINE
8
BLACK
6
CONTINUOUS
10
4.009678937007874
20
-6.3517755905511812
11
4.0134284645669291
21
-6.3330279133858269
0
LINE
8
BLACK
6
CONTINUOUS
10
4.0134284645669291
20
-6.3330279133858269
11
4.0134284645669291
21
-6.3180298031496065
0
LINE
8
BLACK
6
CONTINUOUS
10
4.0134284645669291
20
-6.3180298031496065
11
4.009678937007874
21
-6.2992821259842522
0
LINE
8
BLACK
6
CONTINUOUS
10
4.009678937007874
20
-6.2992821259842522
11
4.0059294094488189
21
-6.2880335433070869
0
LINE
8
BLACK
6
CONTINUOUS
10
4.0059294094488189
20
-6.2880335433070869
11
4.0021798818897638
21
-6.2805344881889766
0
LINE
8
BLACK
6
CONTINUOUS
10
4.0021798818897638
20
-6.2805344881889766
11
3.9946808267716536
21
-6.2692858661417326
0
LINE
8
BLACK
6
CONTINUOUS
10
3.9946808267716536
20
-6.2692858661417326
11
3.9909312992125985
21
-6.2655363385826774
  0
ENDSEC
  0
EOF
